<svg width="88" height="88" viewBox="0 0 88 88" fill="none" xmlns="http://www.w3.org/2000/svg">
<rect width="88" height="88" rx="16" fill="white"/>
<path d="M32.6595 48.2588C32.4858 48.1719 32.3816 48.033 32.3469 47.8593C32.3121 47.6682 32.3295 47.5119 32.4163 47.3556C33.6321 45.5667 35.1779 44.1772 37.0884 43.2045C38.999 42.2319 41.0311 41.7282 43.2021 41.7282C45.3732 41.7282 47.3184 42.1972 49.2116 43.1177C51.0874 44.0382 52.6505 45.3582 53.8663 47.0951C54.0226 47.3209 54.0747 47.5119 54.0226 47.703C53.9705 47.894 53.8837 48.033 53.7274 48.1545C53.5884 48.2588 53.4147 48.3109 53.2237 48.3109C53.0326 48.3109 52.8763 48.1893 52.7547 47.9809C51.6779 46.4351 50.2884 45.254 48.5863 44.4203C46.8842 43.604 45.0953 43.1698 43.1847 43.1524C41.2742 43.1524 39.4679 43.5519 37.7832 44.3856C36.0984 45.2193 34.7263 46.4177 33.6842 47.9982C33.5279 48.224 33.3542 48.3456 33.1458 48.363C32.9547 48.3977 32.7811 48.363 32.6247 48.2588H32.6595ZM47.0058 63.2998C44.6263 62.8309 42.7853 61.7714 41.4653 60.1388C40.1453 58.5061 39.4853 56.5435 39.4853 54.2856C39.4853 53.2435 39.85 52.3403 40.5621 51.6109C41.2916 50.864 42.16 50.4993 43.2021 50.4993C44.2442 50.4993 45.1126 50.8467 45.8421 51.5588C46.5716 52.2709 46.9363 53.1219 46.9363 54.1467C46.9363 54.7893 47.1621 55.3451 47.6137 55.7967C48.0653 56.2482 48.6211 56.474 49.2637 56.474C49.9063 56.474 50.4447 56.2482 50.879 55.7967C51.3132 55.3451 51.539 54.7893 51.539 54.1467C51.539 51.8714 50.7226 49.9609 49.09 48.4151C47.4574 46.8693 45.4774 46.0877 43.1674 46.0877C40.8574 46.0877 38.8947 46.8867 37.2795 48.4845C35.6642 50.0824 34.8653 52.0103 34.8653 54.303C34.8653 55.0672 34.9174 55.7967 35.0216 56.4914C35.1258 57.1861 35.2995 57.8461 35.5426 58.4888C35.6121 58.7145 35.6121 58.923 35.5426 59.0793C35.4732 59.2356 35.3516 59.3572 35.1779 59.4267C34.9869 59.4961 34.7958 59.4961 34.6047 59.4267C34.4137 59.3572 34.2747 59.2009 34.1879 58.9577C33.9795 58.3845 33.8058 57.7072 33.6669 56.9082C33.5279 56.1093 33.4584 55.2409 33.4584 54.2856C33.4584 51.6456 34.4137 49.3703 36.3069 47.4772C38.2174 45.584 40.51 44.6288 43.1847 44.6288C45.8595 44.6288 48.2042 45.5493 50.0974 47.4077C51.9905 49.2661 52.9458 51.5067 52.9458 54.164C52.9458 55.1888 52.5811 56.0745 51.869 56.804C51.1569 57.5335 50.2884 57.9156 49.2463 57.9156C48.2042 57.9156 47.3011 57.5682 46.5716 56.8735C45.8421 56.1788 45.4774 55.3277 45.4774 54.303C45.4774 53.643 45.2516 53.0872 44.8174 52.6182C44.3832 52.1493 43.8274 51.9235 43.1847 51.9235C42.5421 51.9235 42.0037 52.1493 41.5521 52.6182C41.1005 53.0872 40.8747 53.643 40.8747 54.303C40.8747 56.283 41.4305 57.9503 42.5421 59.3051C43.6537 60.6598 45.269 61.563 47.3705 62.0145C47.579 62.0493 47.7179 62.1361 47.8047 62.2924C47.8742 62.4488 47.8916 62.6224 47.8569 62.7961C47.8047 62.9698 47.7179 63.1261 47.579 63.2303C47.44 63.3345 47.2316 63.3693 46.9537 63.3172L47.0058 63.2998ZM36.3416 41.8845C36.1158 42.0061 35.9074 42.0409 35.7337 41.9888C35.56 41.9367 35.4211 41.8324 35.3169 41.6761C35.2474 41.5545 35.23 41.3809 35.2647 41.1724C35.2995 40.964 35.4037 40.8077 35.5774 40.7209C36.7237 40.0435 37.9569 39.5398 39.2595 39.2445C40.5621 38.9319 41.8647 38.793 43.1847 38.793C44.5047 38.793 45.79 38.9493 47.0405 39.2619C48.2911 39.5745 49.5069 40.0261 50.6532 40.634C50.879 40.7382 51.0005 40.8945 51.0353 41.0682C51.07 41.2593 51.0526 41.433 50.9832 41.5893C50.8963 41.7456 50.7574 41.8672 50.5837 41.9367C50.41 42.0235 50.219 42.0061 50.0279 41.8845C48.9684 41.3461 47.8569 40.9293 46.7105 40.634C45.5469 40.3388 44.3832 40.1998 43.1847 40.1998C41.9863 40.1998 40.7879 40.3388 39.6416 40.6167C38.4779 40.8945 37.3837 41.3114 36.3242 41.8845H36.3416ZM39.9195 62.744C38.7558 61.563 37.9047 60.2777 37.3316 58.9056C36.7758 57.5161 36.4805 55.9877 36.4805 54.2856C36.4805 52.4272 37.1232 50.8467 38.4258 49.5267C39.7284 48.224 41.309 47.564 43.1847 47.564C45.0605 47.564 46.6411 48.2067 47.9611 49.4745C49.2811 50.7598 49.9584 52.3056 49.9584 54.1293C49.9584 54.3724 49.9063 54.5635 49.7847 54.7198C49.6805 54.8761 49.4895 54.9456 49.2637 54.9456C49.0032 54.9456 48.8295 54.8761 48.7079 54.7198C48.5863 54.5635 48.5169 54.3724 48.5169 54.1293C48.5169 52.6703 47.9958 51.4545 46.9537 50.4472C45.9116 49.4398 44.6611 48.9361 43.1847 48.9361C41.7084 48.9361 40.4579 49.4572 39.4158 50.4993C38.3737 51.5414 37.87 52.7919 37.87 54.2682C37.87 55.814 38.1132 57.1688 38.5821 58.3324C39.0684 59.4961 39.85 60.6424 40.9616 61.8061C41.1179 61.9624 41.2047 62.1361 41.2047 62.3098C41.2047 62.4835 41.1526 62.6398 41.0658 62.7614C40.9269 62.9351 40.7358 63.0219 40.4926 63.0045C40.2495 62.9872 40.0411 62.9003 39.8847 62.7267L39.9195 62.744ZM49.5416 60.7814C47.5963 60.7814 45.929 60.2082 44.5569 59.0793C43.1847 57.9503 42.5074 56.3177 42.5074 54.1814C42.5074 53.973 42.5769 53.7819 42.6984 53.643C42.82 53.504 42.9937 53.4172 43.2195 53.4172C43.4453 53.4172 43.6016 53.4867 43.7405 53.643C43.8621 53.7819 43.9316 53.973 43.9316 54.1814C43.9316 55.9009 44.4874 57.2035 45.5816 58.0719C46.6758 58.9403 48.0132 59.3745 49.5763 59.3745C49.7674 59.3745 50.0105 59.3572 50.2537 59.3224C50.5142 59.2877 50.74 59.2703 50.9658 59.2703C51.1569 59.2703 51.3305 59.3224 51.4521 59.444C51.5737 59.5656 51.6432 59.7045 51.6432 59.8609C51.6432 60.0519 51.5911 60.2082 51.5042 60.3298C51.4174 60.434 51.2958 60.5209 51.1395 60.573C50.8616 60.6772 50.5837 60.7293 50.2884 60.764C49.9932 60.7814 49.7674 60.7988 49.559 60.7988L49.5416 60.7814Z" fill="#E50695"/>
<path d="M14.4727 43.5694C19.7006 43.5694 23.9558 39.3141 23.9558 34.0688" stroke="#60269E" stroke-width="4.3421" stroke-linecap="round" stroke-linejoin="round"/>
<path d="M62.3926 34.0688C62.3926 39.3141 66.6478 43.5694 71.8931 43.5694" stroke="#60269E" stroke-width="4.3421" stroke-linecap="round" stroke-linejoin="round"/>
<path d="M62.3926 68.0591C62.3926 62.8139 66.6478 58.5586 71.8931 58.5586" stroke="#60269E" stroke-width="4.3421" stroke-linecap="round" stroke-linejoin="round"/>
<path d="M14.4727 58.5586C19.7006 58.5586 23.9558 62.8139 23.9558 68.0591" stroke="#60269E" stroke-width="4.3421" stroke-linecap="round" stroke-linejoin="round"/>
<path d="M66.6821 34.0688H19.6832C16.8055 34.0688 14.4727 36.4017 14.4727 39.2794V62.8483C14.4727 65.726 16.8055 68.0588 19.6832 68.0588H66.6821C69.5598 68.0588 71.8927 65.726 71.8927 62.8483V39.2794C71.8927 36.4017 69.5598 34.0688 66.6821 34.0688Z" stroke="#60269E" stroke-width="4.3421" stroke-linecap="round" stroke-linejoin="round"/>
<path d="M57.4258 20.4868C58.381 25.0721 62.8621 28.0247 67.4474 27.0694" stroke="#60269E" stroke-width="4.3421" stroke-linecap="round" stroke-linejoin="round"/>
<path d="M16.6611 34.7118L16.5395 34.1213C15.9838 31.4118 17.7553 28.7023 20.4648 28.1292L57.4248 20.4871L60.7769 19.7923C63.4864 19.2192 66.1959 20.9908 66.7517 23.7176L67.4464 27.0523L68.6101 32.6797" stroke="#60269E" stroke-width="4.3421" stroke-linecap="round" stroke-linejoin="round"/>
</svg>
