<svg width="88" height="88" viewBox="0 0 88 88" fill="none" xmlns="http://www.w3.org/2000/svg">
<rect width="88" height="88" rx="16" fill="#F7F3FA"/>
<g clip-path="url(#clip0_1156_8148)">
<path d="M52.5452 44.4165C52.5452 44.5555 52.5278 44.7118 52.4757 44.8507C52.3194 45.4065 51.8505 45.7539 51.1557 45.7713H48.7589C48.672 45.7713 48.6026 45.7713 48.5505 45.7886C48.4289 45.806 48.3594 45.9102 48.3247 46.0839C47.3694 48.9671 45.1115 50.5997 42.0894 50.6171H40.8389L41.2731 51.0513C43.531 53.3092 45.8062 55.6019 48.0641 57.8772C48.481 58.294 48.6894 58.7803 48.481 59.3535C48.3247 59.8919 47.9252 60.2045 47.352 60.3087C46.8483 60.3782 46.4662 60.1524 46.1189 59.8224C43.861 57.5819 41.5857 55.3587 39.3278 53.1355C38.4073 52.215 37.5041 51.3118 36.5489 50.4087C36.0626 49.9224 35.8541 49.3839 36.132 48.7413C36.3926 48.0987 36.9136 47.8902 37.591 47.8902C39.1194 47.9076 40.6131 47.9076 42.1415 47.8902C43.6004 47.8902 44.6599 47.2129 45.4241 45.8408H37.0526C36.8268 45.8408 36.5836 45.8234 36.3578 45.7192C36.0278 45.6497 35.7847 45.4586 35.6457 45.2155C35.5762 45.0939 35.5068 44.9897 35.5068 44.8681C35.5068 44.8681 35.4547 44.8507 35.4894 44.816C35.4373 44.7292 35.4199 44.6076 35.4199 44.486V44.4339V44.4165C35.4199 44.3471 35.4199 44.2776 35.4373 44.2081C35.4373 44.1907 35.4547 44.1386 35.4894 44.1213C35.472 44.0692 35.4894 43.9997 35.5415 43.9649C35.5589 43.8781 35.5936 43.8086 35.6631 43.7044C35.7326 43.6176 35.8194 43.496 35.9236 43.4265C36.0104 43.3397 36.132 43.2876 36.2536 43.2355H36.271C36.3926 43.166 36.4794 43.166 36.6183 43.1486C36.7399 43.1313 36.8441 43.1313 36.9831 43.0965H45.3547C45.3547 43.0965 45.3547 43.0792 45.3373 43.0444C44.9899 41.9155 43.6526 41.0297 42.2804 41.0123H36.9136C35.9236 41.0123 35.2636 40.1612 35.5415 39.2233C35.7326 38.6154 36.2536 38.2681 37.0526 38.2681H51.2252C51.972 38.2681 52.4757 38.6849 52.5973 39.3623C52.7189 39.9876 52.3889 40.6128 51.8157 40.8386C51.5899 40.9081 51.3294 40.9255 51.0689 40.9602H47.6299C47.8904 41.6376 48.1162 42.2628 48.3941 42.8534C48.4462 42.9402 48.672 43.0097 48.811 43.0097C49.0889 43.0097 50.0094 43.027 51.1731 43.027C51.9894 43.027 52.5799 43.6349 52.5799 44.3644L52.5452 44.4165Z" fill="#60269E"/>
<path d="M71.6842 64.9285H69.739C69.8258 64.7201 69.8779 64.4769 69.8779 64.2337V60.1521C69.8779 59.1274 69.0442 58.3111 68.0195 58.3111H67.1511V34.1688L70.2079 34.7593C71.3369 34.9851 72.3963 34.0993 72.3963 32.953V28.993C72.3963 28.2635 71.9448 27.5861 71.2674 27.3082L46.0137 16.6266C44.7284 16.0708 43.2695 16.0708 41.9842 16.6092L16.7479 26.9956C16.0706 27.2735 15.619 27.9509 15.619 28.6977V32.953C15.619 34.0993 16.6611 34.9851 17.8074 34.7593L21.0206 34.1514V58.3111H20.1521C19.1274 58.3111 18.3111 59.1274 18.3111 60.1521V64.2337C18.3111 64.4769 18.3632 64.7201 18.45 64.9285H16.3311C15.3063 64.9285 14.4727 65.7622 14.4727 66.7695V70.8512C14.4727 71.8759 15.3063 72.6922 16.3311 72.6922H71.6842C72.6916 72.6922 73.5253 71.8759 73.5253 70.8512V66.7695C73.5253 65.7622 72.6916 64.9285 71.6842 64.9285ZM29.4616 64.9285C29.5484 64.7201 29.6006 64.4769 29.6006 64.2337V60.1521C29.6006 59.1274 28.7669 58.3111 27.7421 58.3111H26.8737V33.0225L35.7663 31.3203C41.2027 30.2782 46.7953 30.2782 52.2316 31.3203L61.2979 33.0572V58.3111H60.4295C59.4048 58.3111 58.5884 59.1274 58.5884 60.1521V64.2337C58.5884 64.4769 58.6406 64.7201 58.7274 64.9285H29.4616Z" fill="#60269E"/>
</g>
<defs>
<clipPath id="clip0_1156_8148">
<rect width="59.0526" height="56.4825" fill="white" transform="translate(14.4727 16.21)"/>
</clipPath>
</defs>
</svg>
