<svg width="88" height="88" viewBox="0 0 88 88" fill="none" xmlns="http://www.w3.org/2000/svg">
<rect width="88" height="88" rx="16" fill="white"/>
<path fill-rule="evenodd" clip-rule="evenodd" d="M34.4785 24.4712H44.7368C45.8888 24.4712 46.9985 24.5668 48.0659 24.7588C49.134 24.9515 50.08 25.2913 50.9019 25.7815C51.7245 26.2739 52.3805 26.9568 52.8744 27.8311C53.3668 28.704 53.6144 29.8251 53.6144 31.1896C53.6144 33.6507 52.8744 35.4259 51.3957 36.5183C55.2024 37.2512 58.025 38.0326 61.0141 39.4702C62.2649 38.5552 63.297 37.5205 64.0935 36.3544C65.4353 34.3857 66.1069 31.9289 66.1069 28.9769C66.1069 26.2464 65.6547 23.9549 64.7517 22.0945C63.8466 20.2383 62.5739 18.7493 60.9287 17.6282C59.2864 16.5113 57.3125 15.7038 55.0112 15.2122C52.71 14.7212 50.1618 14.4736 47.3668 14.4736H34.4785V24.4712Z" fill="#FDB933"/>
<path fill-rule="evenodd" clip-rule="evenodd" d="M55.0233 58.7807C54.5046 59.7601 53.808 60.5361 52.9349 61.1031C52.0605 61.6742 51.0518 62.0797 49.9054 62.3251C48.7582 62.5677 47.5555 62.6914 46.3015 62.6914H32.5426V46.7277H46.5461C49.3318 46.7277 51.5699 47.3687 53.2632 48.6411C54.9544 49.9169 55.8 52.0484 55.8 55.0371C55.8 56.5555 55.5428 57.8041 55.0233 58.7807ZM45.5642 38.0128H32.5426V24.4098H32.5482V14.4736H19.6855V72.629H48.0223C50.6427 72.629 53.1922 72.3046 55.6798 71.6503C58.1632 71.0001 60.3732 69.9948 62.3119 68.6386C64.2491 67.2803 65.7934 65.529 66.9399 63.3849C68.0863 61.2401 68.6585 58.7003 68.6585 55.7662C68.6585 52.1323 67.7032 49.0682 65.9973 46.4424C62.702 41.367 55.5575 38.0128 45.5642 38.0128Z" fill="#F47920"/>
</svg>
