<?xml version="1.0" encoding="UTF-8"?>
<!DOCTYPE svg PUBLIC "-//W3C//DTD SVG 1.1//EN" "http://www.w3.org/Graphics/SVG/1.1/DTD/svg11.dtd">
<!-- Creator: CorelDRAW 2018 (64-Bit) -->
<svg xmlns="http://www.w3.org/2000/svg" xml:space="preserve" width="7.9119in" height="7.52219in" version="1.1" style="shape-rendering:geometricPrecision; text-rendering:geometricPrecision; image-rendering:optimizeQuality; fill-rule:evenodd; clip-rule:evenodd"
viewBox="0 0 7.91191 7.5222"
 xmlns:xlink="http://www.w3.org/1999/xlink">
 <defs>
  <style type="text/css">
   <![CDATA[
    .fil7 {fill:black}
    .fil6 {fill:#13BF6D}
    .fil0 {fill:#72C1E8}
    .fil4 {fill:#AFAFAF}
    .fil1 {fill:#C5E5FF}
    .fil2 {fill:#EFEFEF}
    .fil3 {fill:#F0C020}
    .fil5 {fill:#FC5D3D}
   ]]>
  </style>
 </defs>
 <g id="Layer_x0020_1">
  <metadata id="CorelCorpID_0Corel-Layer"/>
  <path class="fil0" d="M7.83322 1.08518l0 6.20123c0,0.08677 -0.07042,0.15719 -0.15719,0.15719l-7.44015 0c-0.08677,0 -0.15719,-0.07042 -0.15719,-0.15719l0 -6.20123 7.75452 0z"/>
  <path class="fil1" d="M7.38271 7.15116c-0.04342,0 -0.07885,-0.03518 -0.07885,-0.07859 0,-0.04342 0.03493,-0.07859 0.07835,-0.07859l0.0005 0c0.04342,0 0.07859,0.03518 0.07859,0.07859 0,0.04342 -0.03518,0.07859 -0.07859,0.07859zm-0.31489 0l-6.61722 0c-0.04342,0 -0.07859,-0.03518 -0.07859,-0.07859l0 -5.3921c0,-0.04342 0.03518,-0.07859 0.07859,-0.07859 0.04342,0 0.07859,0.03518 0.07859,0.07859l0 5.31354 6.53862 0c0.04342,0 0.07859,0.03518 0.07859,0.07859 0,0.04342 -0.03518,0.07856 -0.07859,0.07856z"/>
  <path class="fil2" d="M6.35497 4.84393c0.08866,-0.36657 0.09419,-0.77017 0,-1.15906l-0.37044 0c-0.04464,-0.15643 -0.10689,-0.30533 -0.18451,-0.44479l0.26232 -0.26213c-0.20416,-0.33378 -0.48616,-0.61578 -0.81994,-0.81994l-0.26213 0.26232c-0.13946,-0.07762 -0.28832,-0.13987 -0.44479,-0.18451l0 -0.3704c-0.3682,-0.0891 -0.7718,-0.09378 -1.15906,0l0 0.37044c-0.15644,0.04464 -0.30533,0.10689 -0.44479,0.18451l-0.26213 -0.26232c-0.33378,0.20416 -0.61578,0.48616 -0.81994,0.81994l0.26232 0.26213c-0.07762,0.13946 -0.13987,0.28832 -0.18451,0.44479l-0.37043 -0.00001c-0.0895,0.36962 -0.09337,0.77325 0,1.15906l0.37044 0c0.04464,0.15643 0.10689,0.30533 0.18451,0.44479l-0.26232 0.26213c0.20416,0.33378 0.48616,0.61578 0.81994,0.81994l0.26213 -0.26232c0.13946,0.07762 0.28832,0.13987 0.44479,0.18451l0 0.37044c0.36821,0.0891 0.7718,0.09378 1.15906,0l0 -0.37044c0.15643,-0.04464 0.30533,-0.10689 0.44479,-0.18451l0.26213 0.26232c0.33378,-0.20416 0.61578,-0.48616 0.81993,-0.81994l-0.26232 -0.26213c0.07762,-0.13946 0.13987,-0.28832 0.18451,-0.44479l0.37043 0 0 -0.00003z"/>
  <circle class="fil3" cx="3.95596" cy="4.26439" r="1.61777"/>
  <path class="fil4" d="M7.83331 0.23579l0 0.84952 -7.75471 0 0 -0.84952c0,-0.0868 0.07039,-0.15719 0.15719,-0.15719l7.44037 0c0.0868,0 0.15716,0.07036 0.15716,0.15719z"/>
  <circle class="fil5" cx="0.67872" cy="0.58192" r="0.19278"/>
  <circle class="fil3" transform="matrix(1.48941 -0.241444 0.241444 1.48941 1.42181 0.582119)" r="0.12775"/>
  <circle class="fil6" cx="2.16549" cy="0.58192" r="0.19278"/>
  <path class="fil7" d="M6.355 3.60642l-0.31187 0c-0.03804,-0.12072 -0.08708,-0.23924 -0.14615,-0.35211l0.22098 -0.22101c0.02578,-0.02578 0.03052,-0.06539 0.01132,-0.09651 -0.21,-0.34331 -0.50238,-0.63568 -0.846,-0.84569 -0.03018,-0.01855 -0.07137,-0.01383 -0.09652,0.01131l-0.2207 0.22101c-0.11255,-0.05879 -0.23107,-0.10783 -0.35211,-0.14619l0 -0.31186c0,-0.03647 -0.02453,-0.06791 -0.06005,-0.0764 -0.38826,-0.094 -0.80796,-0.094 -1.19591,0 -0.03553,0.00849 -0.06005,0.03993 -0.06005,0.0764l0 0.31186c-0.12072,0.03804 -0.23921,0.08708 -0.35207,0.14619l-0.22073 -0.22101c-0.02515,-0.02483 -0.06665,-0.02987 -0.09683,-0.01131 -0.3433,0.21 -0.63568,0.50238 -0.84566,0.84569 -0.01918,0.03112 -0.01446,0.07105 0.01129,0.09683l0.22101 0.2207c-0.05879,0.11286 -0.10815,0.23107 -0.14619,0.35211l-0.31186 -0.00001c-0.03644,0 -0.06788,0.02452 -0.0764,0.06005 -0.09375,0.38811 -0.09491,0.80299 0,1.19591 0.00852,0.03553 0.03996,0.06004 0.0764,0.06004l0.31186 0c0.03804,0.12072 0.0874,0.23925 0.14619,0.35211l-0.22101 0.2207c-0.02575,0.02578 -0.03049,0.06571 -0.01129,0.09651 0.04056,0.06665 0.08485,0.13236 0.13201,0.19523 0.02519,0.03364 0.07611,0.04118 0.11004,0.01604 0.03461,-0.02609 0.04181,-0.07545 0.01606,-0.11004 -0.03144,-0.04213 -0.06225,-0.08614 -0.09117,-0.13078l0.21787 -0.21787c0.02452,-0.02483 0.03018,-0.06319 0.01324,-0.094 -0.07577,-0.13581 -0.13553,-0.2798 -0.17763,-0.42787 -0.00978,-0.03364 -0.04087,-0.05722 -0.07576,-0.05722l-0.30778 0c-0.06869,-0.32048 -0.0713,-0.66904 0,-1.00162l0.30778 0c0.0349,0 0.06602,-0.02358 0.07576,-0.05722 0.04213,-0.14807 0.10186,-0.29238 0.17763,-0.42819 0.01663,-0.03049 0.01129,-0.06917 -0.01324,-0.09368l-0.21787 -0.21787c0.18235,-0.28137 0.42725,-0.52628 0.70861,-0.70861l0.21787 0.21787c0.02424,0.02421 0.06382,0.02987 0.094,0.0132 0.13553,-0.07576 0.27951,-0.1355 0.42787,-0.17763 0.03361,-0.00974 0.05719,-0.04087 0.05719,-0.07576l0 -0.30778c0.3257,-0.0698 0.67529,-0.0698 1.00162,0l0 0.30778c0,0.0349 0.02358,0.06602 0.05722,0.07576 0.14807,0.04213 0.29206,0.10186 0.42784,0.17763 0.03018,0.01667 0.06948,0.011 0.094,-0.0132l0.2179 -0.21787c0.28134,0.18234 0.52624,0.42724 0.70858,0.70861l-0.21786 0.21787c-0.02483,0.02483 -0.03018,0.06319 -0.01321,0.09368 0.07577,0.13582 0.13553,0.28012 0.17763,0.42819 0.00974,0.03364 0.04087,0.05722 0.07577,0.05722l0.30774 0c0.06922,0.32356 0.07086,0.66979 0,1.00162l-0.30775 0c-0.03521,0 -0.06605,0.02358 -0.07576,0.05722 -0.04213,0.14807 -0.10186,0.29206 -0.17763,0.42787 -0.01698,0.03081 -0.01163,0.06917 0.0132,0.094l0.21787 0.21787c-0.18234,0.28137 -0.42724,0.52628 -0.70858,0.70861l-0.2179 -0.21786c-0.02452,-0.02421 -0.06382,-0.02987 -0.094,-0.01321 -0.13578,0.07577 -0.27977,0.1355 -0.42784,0.17763 -0.03364,0.00974 -0.05722,0.04087 -0.05722,0.07577l0 0.30778c-0.32727,0.0698 -0.67526,0.0698 -1.00162,0l0 -0.30778c0,-0.03521 -0.02358,-0.06602 -0.05719,-0.07577 -0.14839,-0.04213 -0.29238,-0.10186 -0.42787,-0.17763 -0.03018,-0.01667 -0.0698,-0.011 -0.094,0.01321l-0.21786 0.21786c-0.06696,-0.04339 -0.13295,-0.09117 -0.19554,-0.14116 -0.03411,-0.02726 -0.08334,-0.02159 -0.1107,0.01195 -0.02701,0.03395 -0.02166,0.08331 0.0123,0.11066 0.08363,0.06696 0.17256,0.12953 0.26405,0.18549 0.03053,0.01855 0.07168,0.01352 0.09683,-0.01163l0.22073 -0.2207c0.11286,0.05878 0.23135,0.10814 0.35208,0.14619l0 0.31186c0,0.03646 0.02452,0.06791 0.06005,0.0764 0.39074,0.09419 0.80475,0.09444 1.1959,0 0.03553,-0.00849 0.06005,-0.03993 0.06005,-0.0764l0 -0.31186c0.12107,-0.03836 0.23925,-0.0874 0.35211,-0.14619l0.2207 0.2207c0.02519,0.02515 0.06633,0.03018 0.09683,0.01163 0.3433,-0.21001 0.63571,-0.5027 0.84569,-0.846 0.01918,-0.03081 0.01415,-0.07073 -0.01132,-0.09651l-0.22098 -0.2207c0.05876,-0.11318 0.10811,-0.23139 0.14616,-0.35211l0.31187 0c0.03646,0 0.06791,-0.02483 0.07643,-0.06004 0.09422,-0.39093 0.09441,-0.80482 0,-1.19591 -0.00852,-0.03553 -0.03996,-0.06005 -0.07643,-0.06005z"/>
  <path class="fil7" d="M2.23755 5.92436c-0.02924,-0.02987 -0.0808,-0.03081 -0.11098,-0.00157 -0.01506,0.01446 -0.02358,0.03427 -0.02389,0.05502 -0.00031,0.02106 0.00754,0.04087 0.022,0.05596 0.01506,0.01541 0.03521,0.02389 0.05659,0.02389 0.02044,0 0.03993,-0.00754 0.0547,-0.022 0.03113,-0.03018 0.03176,-0.07985 0.00189,-0.11098l-0.00031 -0.00031z"/>
  <path class="fil7" d="M3.95596 2.56802c-0.93699,0 -1.6964,0.75933 -1.6964,1.6964 0,0.93626 0.75882,1.6964 1.6964,1.6964 0.86788,0 1.57732,-0.65093 1.68256,-1.47979 0.00594,-0.0443 -0.02631,-0.083 -0.06791,-0.08803 -0.04272,-0.00535 -0.08268,0.02546 -0.08803,0.06791 -0.01144,0.08998 -0.03091,0.17724 -0.05709,0.26137l-0.49684 0.00001c0.04807,-0.29882 0.04813,-0.61663 0,-0.91579l0.49719 0c0.00632,0.02031 0.01223,0.04078 0.01774,0.0615 0.01072,0.04087 0.0547,0.06665 0.09623,0.05565 0.04162,-0.01107 0.06678,-0.0536 0.05565,-0.0962 -0.1936,-0.72952 -0.85852,-1.25941 -1.6395,-1.25941l-0 0zm0.07859 3.22873l0 -0.91727 0.70179 0c-0.1216,0.50204 -0.38713,0.86496 -0.70179,0.91727zm-0.15719 0c-0.31466,-0.05231 -0.58019,-0.41523 -0.7018,-0.91727l0.7018 0 0 0.91727zm-0.73449 -1.07447c-0.0497,-0.28769 -0.05291,-0.60943 0,-0.91579l0.73449 0 0 0.91579 -0.73449 0zm-0.72613 -0.45786c0,-0.15757 0.02373,-0.31149 0.06917,-0.4579l0.49735 -0c-0.04807,0.29882 -0.0481,0.61663 0,0.91579l-0.49739 0.00001c-0.0454,-0.14641 -0.06913,-0.30036 -0.06913,-0.45789zm0.75882 -0.61512c0.1216,-0.50204 0.38713,-0.86496 0.7018,-0.91727l0 0.91727 -0.7018 0zm0.85899 -0.91727c0.31466,0.05231 0.58019,0.41523 0.70179,0.91727l-0.70179 0 0 -0.91727zm-0.61606 0.08957c-0.1842,0.19168 -0.32699,0.48072 -0.40505,0.8277l-0.46887 0c0.16191,-0.37125 0.47302,-0.67859 0.87392,-0.8277zm-0.87395 2.05788l0.4689 0c0.07806,0.34695 0.22083,0.63599 0.40502,0.82767 -0.38043,-0.14156 -0.70324,-0.4363 -0.87392,-0.82767zm2.82245 0c-0.1669,0.38213 -0.48399,0.68064 -0.87232,0.82632 0.18357,-0.19168 0.32589,-0.48016 0.40376,-0.82632l0.46856 0zm-0.59796 -0.15719l-0.73448 0 0 -0.91579 0.73448 0c0.04967,0.28769 0.05294,0.60943 0,0.91579zm0.1294 -1.07298c-0.07791,-0.34629 -0.22029,-0.63486 -0.40395,-0.82657 0.38659,0.14462 0.70465,0.44108 0.87256,0.82657l-0.46861 0z"/>
  <path class="fil7" d="M5.49171 4.16257c0.00261,0.03826 0.03248,0.07326 0.08363,0.07326 0.04339,-0.00283 0.07608,-0.04024 0.07326,-0.08363 -0.00283,-0.04276 -0.04087,-0.07671 -0.08363,-0.07326 -0.04307,0.00283 -0.07608,0.04024 -0.07326,0.08363z"/>
  <path class="fil7" d="M0.67885 0.31046c-0.14964,0.00031 -0.27162,0.12198 -0.27162,0.27163 0,0.14933 0.12198,0.27131 0.27162,0.27131 0.14933,0 0.27131,-0.12198 0.27131,-0.27131 0,-0.14965 -0.12198,-0.27131 -0.27131,-0.27163zm0 0.38574c-0.06287,-0.00031 -0.11412,-0.05156 -0.11443,-0.11412 0.00031,-0.06287 0.05156,-0.11412 0.11443,-0.11444 0.06287,0.00031 0.11381,0.05156 0.11412,0.11444 -0.00031,0.06256 -0.05124,0.11381 -0.11412,0.11412z"/>
  <path class="fil7" d="M1.42201 0.31046c-0.14964,0.00031 -0.27131,0.12198 -0.27131,0.27163 0,0.14964 0.12167,0.27131 0.27131,0.27131 0.14968,0 0.27134,-0.12167 0.27134,-0.27131 0,-0.14965 -0.12167,-0.27131 -0.27134,-0.27163zm0 0.38574c-0.06287,-0.00031 -0.11412,-0.05156 -0.11412,-0.11412 0,-0.06287 0.05124,-0.11412 0.11412,-0.11444 0.06287,0.00031 0.11415,0.05156 0.11447,0.11444 -0.00031,0.06256 -0.05159,0.11381 -0.11447,0.11412z"/>
  <path class="fil7" d="M2.16556 0.31046c-0.14964,0.00031 -0.27131,0.12198 -0.27131,0.27163 0,0.14933 0.12167,0.27131 0.27131,0.27131 0.14964,0 0.27131,-0.12198 0.27131,-0.27131 0,-0.14965 -0.12167,-0.27131 -0.27131,-0.27163zm0 0.38574c-0.06287,-0.00031 -0.11412,-0.05156 -0.11412,-0.11412 0,-0.06287 0.05124,-0.11412 0.11412,-0.11444 0.06287,0.00031 0.11412,0.05156 0.11412,0.11444 0,0.06256 -0.05124,0.11381 -0.11412,0.11412z"/>
  <path class="fil7" d="M7.30412 0.58192c0,-0.04342 -0.03518,-0.07859 -0.07859,-0.07859l-4.25742 0c-0.04342,0 -0.07859,0.03518 -0.07859,0.07859 0,0.04342 0.03518,0.07859 0.07859,0.07859l4.25741 0c0.04342,0 0.07859,-0.03518 0.07859,-0.07859l0.00001 0z"/>
  <path class="fil7" d="M7.91181 7.28641l0 -6.1973c0.00006,-0.00129 0.00009,-0.00255 0.00009,-0.00384l0 -0.84949c0,-0.13002 -0.10576,-0.23579 -0.23579,-0.23579l-7.44033 0c-0.13002,0 -0.23579,0.10576 -0.23579,0.23579l0 0.84949c0,0.00129 0.00003,0.00258 0.00009,0.00384l0 6.1973c0,0.13003 0.10576,0.23579 0.23579,0.23579l7.44015 0c0.13003,0 0.23579,-0.10576 0.23579,-0.23579l-0 0zm-7.75452 0l0 -6.12242 6.10403 0c0.04339,0 0.07859,-0.03553 0.07859,-0.07859 0,-0.04339 -0.03521,-0.07859 -0.07859,-0.07859l-6.10412 0 0 -0.77102c0,-0.04332 0.03524,-0.07859 0.07859,-0.07859l7.44033 0c0.04335,0 0.07859,0.03527 0.07859,0.07859l0 0.77102 -0.86464 0c-0.04339,0 -0.07859,0.03521 -0.07859,0.07859 0,0.04307 0.03521,0.07859 0.07859,0.07859l0.86455 0 0 6.12245c0,0.04332 -0.03524,0.07859 -0.07859,0.07859l-7.44015 0c-0.04335,-0.00003 -0.07859,-0.03527 -0.07859,-0.07862l0 -0.00001z"/>
  <circle class="fil7" cx="6.5757" cy="1.0854" r="0.07859"/>
 </g>
</svg>
