<svg width="88" height="88" viewBox="0 0 88 88" fill="none" xmlns="http://www.w3.org/2000/svg">
<rect width="88" height="88" rx="16" fill="#F7F3FA"/>
<g clip-path="url(#clip0_1156_8167)">
<path d="M43.7918 42.8186C51.6191 42.8186 57.9644 36.4733 57.9644 28.6459C57.9644 20.8185 51.6191 14.4731 43.7918 14.4731C35.9644 14.4731 29.6191 20.8185 29.6191 28.6459C29.6191 36.4733 35.9644 42.8186 43.7918 42.8186Z" fill="#60269E"/>
<path d="M49.7489 26.0404C49.7489 26.1446 49.7489 26.2488 49.6968 26.353C49.5926 26.7351 49.2626 26.9783 48.7763 26.9957H47.1089C47.1089 26.9957 47.0047 26.9957 46.97 26.9957C46.8831 26.9957 46.8484 27.0825 46.8137 27.2041C46.1537 29.2188 44.5731 30.3478 42.4716 30.3651H41.6031L41.9158 30.6778C43.4963 32.2583 45.0768 33.8562 46.6574 35.4368C46.9526 35.732 47.0916 36.062 46.9526 36.4615C46.8484 36.8262 46.5705 37.052 46.171 37.1215C45.8237 37.1736 45.5631 37.0173 45.32 36.7915C43.7395 35.2283 42.1589 33.6825 40.5784 32.1367C39.9358 31.4941 39.3105 30.8688 38.6505 30.2436C38.3205 29.9136 38.1642 29.5315 38.3552 29.0799C38.5289 28.6283 38.911 28.4893 39.3626 28.4893C40.4221 28.4893 41.4816 28.4893 42.541 28.4893C43.5484 28.4893 44.2952 28.0204 44.8337 27.0478H38.9979C38.8416 27.0478 38.6679 27.0478 38.5116 26.9609C38.2858 26.9088 38.1121 26.7872 38.0079 26.6135C37.9558 26.5267 37.9037 26.4572 37.9037 26.3704C37.9037 26.3704 37.8689 26.3704 37.9037 26.3356C37.8689 26.2662 37.8516 26.1967 37.8516 26.1099V26.0751C37.8516 26.023 37.8516 25.9709 37.8516 25.9362C37.8516 25.9362 37.8516 25.8841 37.8863 25.8667C37.8863 25.832 37.8863 25.7799 37.921 25.7625C37.921 25.693 37.9558 25.6583 38.0079 25.5888C38.06 25.5193 38.1121 25.4498 38.1816 25.3977C38.251 25.3283 38.3205 25.2935 38.4074 25.2762C38.4074 25.2762 38.5463 25.2241 38.6505 25.2067C38.7374 25.2067 38.8068 25.2067 38.911 25.172H44.7468C44.7468 25.172 44.7468 25.172 44.7468 25.1372C44.5037 24.3556 43.5658 23.7304 42.6279 23.713H38.8937C38.1989 23.713 37.7474 23.1225 37.9384 22.4798C38.06 22.063 38.4421 21.8198 38.9805 21.8198H48.8631C49.3842 21.8198 49.7316 22.1151 49.8184 22.584C49.9052 23.0183 49.6795 23.4525 49.2626 23.6088C49.1063 23.6609 48.9326 23.6783 48.7416 23.6956H46.3447C46.5184 24.1646 46.6747 24.5988 46.8831 25.0156C46.9179 25.0851 47.0742 25.1198 47.1784 25.1198C47.3695 25.1198 48.0121 25.1198 48.8284 25.1198C49.3842 25.1198 49.8184 25.5367 49.8184 26.0577L49.7489 26.0404Z" fill="white"/>
<path d="M24.0287 60.8823H29.2392C33.5466 60.8823 37.055 64.3908 37.055 68.6982V72.0329H16.2129V68.6982C16.2129 64.3734 19.7213 60.8823 24.0287 60.8823Z" fill="#60269E"/>
<path d="M26.6318 62.8624C23.3839 62.8624 20.7266 60.2223 20.7266 56.9571C20.7266 53.6918 23.3666 51.0518 26.6318 51.0518C29.8971 51.0518 32.5371 53.6918 32.5371 56.9571C32.5371 60.2223 29.8971 62.8624 26.6318 62.8624Z" fill="#60269E"/>
<path d="M26.6324 51.8163C29.4634 51.8163 31.7734 54.109 31.7734 56.9574C31.7734 59.8058 29.4808 62.0985 26.6324 62.0985C23.7839 62.0985 21.4913 59.8058 21.4913 56.9574C21.4913 54.109 23.7839 51.8163 26.6324 51.8163ZM26.6324 50.2705C22.9503 50.2705 19.9629 53.2579 19.9629 56.94C19.9629 60.6222 22.9503 63.6095 26.6324 63.6095C30.3145 63.6095 33.3018 60.6222 33.3018 56.94C33.3018 53.2579 30.3145 50.2705 26.6324 50.2705Z" fill="#F7F3FA"/>
<path d="M58.3646 60.8823H63.5751C67.8825 60.8823 71.3909 64.3908 71.3909 68.6982V72.0329H50.5488V68.6982C50.5488 64.3908 54.0572 60.8823 58.3646 60.8823Z" fill="#60269E"/>
<path d="M60.9678 62.8619C57.7199 62.8619 55.0625 60.2219 55.0625 56.9566C55.0625 53.6913 57.7025 51.0513 60.9678 51.0513C64.233 51.0513 66.873 53.6913 66.873 56.9566C66.873 60.2219 64.233 62.8619 60.9678 62.8619Z" fill="#60269E"/>
<path d="M60.9683 51.8158C63.7994 51.8158 66.1094 54.1085 66.1094 56.9569C66.1094 59.8053 63.8167 62.098 60.9683 62.098C58.1199 62.098 55.8272 59.8053 55.8272 56.9569C55.8272 54.1085 58.1199 51.8158 60.9683 51.8158ZM60.9683 50.27C57.2862 50.27 54.2988 53.2574 54.2988 56.9395C54.2988 60.6217 57.2862 63.6091 60.9683 63.6091C64.6504 63.6091 67.6378 60.6217 67.6378 56.9395C67.6378 53.2574 64.6504 50.27 60.9683 50.27Z" fill="#F7F3FA"/>
<path d="M41.1869 55.7407H46.3974C50.7048 55.7407 54.2132 59.2492 54.2132 63.5566V66.8913H33.3711V63.5566C33.3711 59.2492 36.8795 55.7407 41.1869 55.7407Z" fill="#60269E"/>
<path d="M43.79 57.7208C40.5421 57.7208 37.8848 55.0807 37.8848 51.8155C37.8848 48.5502 40.5248 45.9102 43.79 45.9102C47.0553 45.9102 49.6953 48.5502 49.6953 51.8155C49.6953 55.0807 47.0553 57.7208 43.79 57.7208Z" fill="#60269E"/>
<path d="M43.7906 46.6918C46.6216 46.6918 48.9316 48.9844 48.9316 51.8329C48.9316 54.6813 46.639 56.974 43.7906 56.974C40.9421 56.974 38.6495 54.6813 38.6495 51.8329C38.6495 48.9844 40.9421 46.6918 43.7906 46.6918ZM43.7906 45.146C40.1085 45.146 37.1211 48.1334 37.1211 51.8155C37.1211 55.4976 40.1085 58.485 43.7906 58.485C47.4727 58.485 50.46 55.4976 50.46 51.8155C50.46 48.1334 47.4727 45.146 43.7906 45.146Z" fill="#F7F3FA"/>
</g>
<defs>
<clipPath id="clip0_1156_8167">
<rect width="55.1795" height="57.542" fill="white" transform="translate(16.207 14.4731)"/>
</clipPath>
</defs>
</svg>
