<svg width="88" height="88" viewBox="0 0 88 88" fill="none" xmlns="http://www.w3.org/2000/svg">
<rect width="88" height="88" rx="16" fill="#F7F3FA"/>
<path d="M56.3659 45.7026C62.5913 45.7026 67.638 40.6558 67.638 34.4304C67.638 28.2049 62.5913 23.1582 56.3659 23.1582C50.1404 23.1582 45.0938 28.2049 45.0938 34.4304C45.0938 40.6558 50.1404 45.7026 56.3659 45.7026Z" fill="#60269E"/>
<path d="M61.1064 32.3638C61.1064 32.3638 61.1064 32.5375 61.0717 32.607C60.9848 32.9196 60.7243 33.1107 60.3422 33.1281H59.0048C59.0048 33.1281 58.918 33.1281 58.8833 33.1281C58.8138 33.1281 58.779 33.1975 58.7617 33.3017C58.2406 34.8997 56.9727 35.8028 55.3054 35.8202H54.6106L54.8538 36.0633C56.1043 37.3139 57.3722 38.5818 58.6227 39.8497C58.8485 40.0755 58.9701 40.3534 58.8485 40.666C58.7617 40.9613 58.5359 41.135 58.2233 41.1871C57.9454 41.2218 57.7369 41.1002 57.5459 40.9092C56.2954 39.6586 55.0275 38.4255 53.7769 37.2097C53.2559 36.6886 52.7696 36.2023 52.2312 35.6986C51.9533 35.4207 51.849 35.1428 52.0054 34.7781C52.1443 34.4133 52.4396 34.3091 52.8217 34.3091C53.6727 34.3091 54.5064 34.3091 55.3401 34.3091C56.1564 34.3091 56.7296 33.9444 57.1638 33.1628H52.5264C52.4048 33.1628 52.2659 33.1628 52.1443 33.0933C51.9706 33.0586 51.8317 32.9544 51.7448 32.8154C51.7101 32.746 51.6754 32.6939 51.6754 32.6244C51.6754 32.6244 51.658 32.6244 51.6754 32.607C51.658 32.5549 51.6406 32.4854 51.6406 32.4333V32.3986C51.6406 32.3638 51.6406 32.3291 51.6406 32.277C51.6406 32.277 51.6406 32.2423 51.658 32.2249C51.658 32.2075 51.658 32.1554 51.6754 32.1381C51.6754 32.086 51.6927 32.0512 51.7448 31.9991C51.7796 31.947 51.8317 31.8775 51.8838 31.8428C51.9359 31.7907 52.0054 31.7733 52.0575 31.7386C52.0575 31.7386 52.179 31.7038 52.2485 31.6865C52.318 31.6865 52.3701 31.6865 52.4569 31.6691H57.0943C57.0943 31.6691 57.0943 31.6691 57.0943 31.6517C56.9033 31.0265 56.1564 30.5402 55.4096 30.5228H52.4396C51.8838 30.5228 51.5364 30.0538 51.6754 29.5328C51.7796 29.2028 52.0748 29.0117 52.509 29.0117H60.3769C60.7938 29.0117 61.0717 29.2375 61.1412 29.6196C61.2106 29.967 61.0196 30.3144 60.7069 30.4359C60.5854 30.4707 60.429 30.488 60.2901 30.5054H58.3796C58.5185 30.8702 58.6575 31.2175 58.7964 31.5649C58.8138 31.617 58.9527 31.6517 59.0222 31.6517C59.1785 31.6517 59.6822 31.6517 60.3248 31.6517C60.7764 31.6517 61.1064 31.9817 61.1064 32.3986V32.3638Z" fill="white"/>
<path d="M23.2944 37.5737V61.716H12.9428L13.7244 61.4207C13.7938 61.4034 13.8633 61.3686 13.9328 61.3339C13.6028 61.4728 13.186 61.5771 12.7344 61.716V37.5737H23.2944Z" fill="#60269E"/>
<path d="M68.9737 45.6505C69.1126 45.6332 69.5642 45.5984 69.9463 45.6505C70.311 45.6679 70.9189 45.8242 71.301 45.9806C71.6831 46.1542 72.2216 46.5363 72.5342 46.9011C72.8468 47.2658 73.2116 47.7521 73.3158 48.0127C73.42 48.3079 73.5416 48.7769 73.5937 49.1243C73.6458 49.4369 73.611 50.0274 73.5242 50.4269C73.42 51.0348 73.2984 51.2606 72.6905 51.8338C72.3084 52.2159 71.2316 53.119 70.2763 53.8659C69.3558 54.5953 67.5668 55.9327 66.3337 56.8706C65.1179 57.7738 63.0337 59.2849 61.7484 60.188C60.4631 61.1086 58.5005 62.4633 57.3889 63.1928C56.2773 63.9396 54.9226 64.7212 54.3842 64.9817C53.8458 65.2249 52.8731 65.5375 52.2131 65.6765C51.5531 65.8154 50.7716 65.9196 50.4763 65.9196C50.1637 65.9196 49.8858 65.8675 49.8858 65.8328H49.8684C49.7989 65.937 49.4863 65.937 48.7568 65.8154C48.1663 65.7286 47.3326 65.5028 46.8637 65.3465C46.3947 65.1728 42.921 63.8354 39.1521 62.3244C33.6984 60.188 31.8921 59.528 30.3289 59.1285C29.2173 58.8506 27.1852 58.3991 23.2773 57.6175V41.7426L26.9942 40.8221C29.0437 40.301 30.8326 39.8668 30.9368 39.8668C31.0758 39.8495 31.1626 39.8842 31.1452 39.9363C31.1452 40.0058 31.371 40.11 31.6663 40.2142C31.9442 40.301 36.0952 42.3332 40.8716 44.7474C48.7742 48.69 49.6426 49.1764 50.32 49.819C50.8584 50.3574 51.1016 50.7222 51.2926 51.2606C51.4489 51.7816 51.5184 52.2506 51.4663 52.9801C51.4142 53.7964 51.3621 54.0917 51.0147 54.5953C50.8063 54.9601 50.3547 55.429 50.0421 55.6375C49.5905 55.9675 49.2952 56.0717 48.67 56.089C47.9058 56.1585 47.5931 56.0717 42.3479 54.1438C39.3258 53.0669 36.6684 52.1811 36.4426 52.1811C36.2168 52.1811 35.9216 52.2853 35.7826 52.4243C35.6263 52.5806 35.5047 52.8585 35.5047 53.1538C35.5047 53.4317 35.6089 53.7096 35.7305 53.8485C35.8694 53.9527 38.3184 54.8732 46.9158 58.017L48.3573 58.1385C49.5384 58.1385 49.7816 58.0864 50.4763 57.7738C50.9105 57.5654 51.5531 57.1138 51.9005 56.7838C52.2305 56.4538 52.6647 55.9327 52.821 55.6548C52.9947 55.3596 53.2205 54.8038 53.3594 54.3869C53.4637 54.0048 53.5679 53.5011 53.5679 53.3274C53.5679 53.1017 53.6373 52.9453 53.7242 52.9453C53.811 52.9453 54.3842 52.7369 54.94 52.4764C55.5305 52.2332 58.5873 50.6874 61.731 49.0722C64.8921 47.4742 67.7231 46.0327 68.0531 45.9111C68.4179 45.7548 68.4526 45.7721 68.5568 45.7374L68.7479 45.7027" fill="#60269E"/>
</svg>
