<svg width="88" height="88" viewBox="0 0 88 88" fill="none" xmlns="http://www.w3.org/2000/svg">
<rect width="88" height="88" rx="16" fill="white"/>
<path d="M54.1301 49.3877C53.8422 49.6961 53.4311 49.84 53.0405 49.84C52.6499 49.84 52.2593 49.6961 51.9509 49.3877C51.3547 48.7915 51.3547 47.8253 51.9509 47.2291L53.9039 45.2761C51.3136 45.2761 47.1608 45.2761 46.544 45.2761C46.2562 45.2761 46.1534 45.3789 46.0506 45.6667C45.1255 48.7504 42.0006 50.6418 38.773 50.6418H37.7862C38.0123 50.8679 38.1357 51.0118 38.2796 51.1352C40.7877 53.6433 43.2958 56.1514 45.8039 58.6595C46.2768 59.1324 46.4824 59.6463 46.2768 60.2836C46.0918 60.9004 45.66 61.2499 45.0227 61.3527C44.4676 61.4349 44.0359 61.1882 43.6659 60.8182C41.1783 58.3512 38.6702 55.9047 36.1621 53.4377C35.1342 52.4304 34.1268 51.423 33.0989 50.4156C32.5644 49.9017 32.3382 49.3055 32.626 48.586C32.9139 47.8664 33.4895 47.6403 34.2502 47.6403C35.9154 47.6403 37.6012 47.6403 39.2664 47.6403C40.8699 47.6403 42.0623 46.8796 42.9052 45.3583H39.3692C37.4573 45.3583 35.5453 45.3583 33.654 45.3583C33.3456 45.3583 33.0372 45.3172 32.7494 45.2144C32.1121 44.9677 31.742 44.2481 31.8654 43.5697C31.9887 42.8296 32.6055 42.3362 33.4484 42.3362C36.3677 42.3362 39.2869 42.3362 42.2268 42.3362H42.823C42.4529 41.0822 40.9522 40.0543 39.4103 40.0543C37.4367 40.0543 35.4425 40.0543 33.4689 40.0543C32.3793 40.0543 31.6598 39.1086 31.9682 38.1012C32.1738 37.4228 32.7494 37.0527 33.6334 37.0527H49.2783C50.1006 37.0527 50.6763 37.5256 50.7996 38.2451C50.923 38.9441 50.5529 39.6225 49.9156 39.8692C49.6689 39.972 49.3811 39.9926 49.1138 39.9926C48.0448 39.9926 46.9758 39.9926 45.8862 39.9926H45.29C45.5778 40.7327 45.8451 41.4111 46.1534 42.0895C46.1945 42.1923 46.4412 42.2745 46.6057 42.2745C47.243 42.2745 51.5192 42.2745 54.0889 42.2745L51.9509 40.1365C51.3547 39.5403 51.3547 38.5741 51.9509 37.9779C52.5471 37.3817 53.5133 37.3817 54.1095 37.9779L59.8453 43.7136L54.1506 49.4083L54.1301 49.3877Z" fill="#E50695"/>
<path d="M71.7899 43.972V62.5149C71.7899 68.5931 67.2061 73.5262 61.5581 73.5262H26.4427C20.7948 73.5262 16.2109 68.5931 16.2109 62.5149V32.4322C16.2109 26.3539 20.7948 21.4209 26.4427 21.4209H71.7899" stroke="#60269E" stroke-width="4.3421" stroke-linecap="round" stroke-linejoin="round"/>
<path d="M63.1055 28.3684L71.7897 21.421L63.1055 14.4736" stroke="#60269E" stroke-width="4.3421" stroke-linecap="round" stroke-linejoin="round"/>
</svg>
