<svg xmlns="http://www.w3.org/2000/svg" xmlns:xlink="http://www.w3.org/1999/xlink" enable-background="new 0 0 32 32" viewBox="0 0 32 32" id="dth"><defs><linearGradient id="a"><stop offset="0" stop-color="#000092"></stop><stop offset="1" stop-color="#ff00f3"></stop></linearGradient><linearGradient id="b" x1="6.762" x2="22" y1="16" y2="16" gradientUnits="userSpaceOnUse" xlink:href="#a"></linearGradient></defs><path fill="url(#b)" d="M 18.25 3.0019531 C 17.640922 3 17.027781 3.0772813 16.425781 3.2382812 C 16.158781 3.3092813 16.001266 3.5855625 16.072266 3.8515625 C 16.144266 4.1185625 16.417594 4.2780781 16.683594 4.2050781 C 18.748594 3.6520781 20.970469 4.2468125 22.480469 5.7578125 C 23.991469 7.2688125 24.586203 9.4906875 24.033203 11.554688 C 23.961203 11.821687 24.119719 12.095016 24.386719 12.166016 C 24.429719 12.178016 24.474578 12.183594 24.517578 12.183594 C 24.738578 12.183594 24.938047 12.0365 24.998047 11.8125 C 25.644047 9.4055 24.9505 6.8137812 23.1875 5.0507812 C 21.86525 3.7285312 20.077234 3.0078125 18.25 3.0019531 z M 18.246094 5.0019531 C 17.811016 5.0005781 17.373359 5.056375 16.943359 5.171875 C 16.676359 5.242875 16.518844 5.5172031 16.589844 5.7832031 C 16.660844 6.0512031 16.936172 6.2077187 17.201172 6.1367188 C 18.578172 5.7697188 20.057453 6.1658281 21.064453 7.1738281 C 22.071453 8.1808281 22.469562 9.6601094 22.101562 11.037109 C 22.030562 11.304109 22.188078 11.577438 22.455078 11.648438 C 22.498078 11.660438 22.542938 11.666016 22.585938 11.666016 C 22.806938 11.666016 23.007406 11.518922 23.066406 11.294922 C 23.527406 9.5749219 23.032437 7.7238437 21.773438 6.4648438 C 20.829187 5.5213437 19.551328 5.0060781 18.246094 5.0019531 z M 10.462891 5.2558594 C 10.334891 5.2558594 10.206875 5.3048437 10.109375 5.4023438 C 8.409375 7.1023438 7.4726563 9.361625 7.4726562 11.765625 C 7.4726562 13.322625 7.871375 14.815672 8.609375 16.138672 C 8.515375 16.209672 8.4218906 16.281234 8.3378906 16.365234 C 7.8658906 16.837234 7.6054688 17.466766 7.6054688 18.134766 C 7.6054688 18.802766 7.8658906 19.430344 8.3378906 19.902344 C 8.4578906 20.022344 8.5866563 20.126797 8.7226562 20.216797 L 7.8222656 26.072266 C 7.2112656 26.261266 6.7617188 26.826047 6.7617188 27.498047 L 6.7617188 28.498047 C 6.7617188 28.774047 6.9857188 28.998047 7.2617188 28.998047 L 15.261719 28.998047 C 15.537719 28.998047 15.761719 28.774047 15.761719 28.498047 L 15.761719 27.498047 C 15.761719 26.792047 15.270328 26.202922 14.611328 26.044922 L 11.943359 19.818359 C 12.003359 19.753359 12.060281 19.686234 12.113281 19.615234 C 13.465281 20.365234 14.957172 20.753906 16.451172 20.753906 C 18.786172 20.753906 21.110891 19.856906 22.837891 18.128906 C 23.032891 17.933906 23.032891 17.616875 22.837891 17.421875 L 17.179688 11.765625 L 17.992188 10.953125 C 18.323187 11.037125 18.684359 10.967984 18.943359 10.708984 C 19.334359 10.317984 19.334359 9.6849219 18.943359 9.2949219 C 18.552359 8.9049219 17.919297 8.9039219 17.529297 9.2949219 C 17.270297 9.5539219 17.200156 9.9160938 17.285156 10.246094 L 16.472656 11.058594 L 10.816406 5.4023438 C 10.718906 5.3048437 10.590891 5.2558594 10.462891 5.2558594 z M 10.472656 6.4726562 L 16.101562 12.101562 C 16.107563 12.107563 16.109234 12.115094 16.115234 12.121094 C 16.121234 12.127094 16.130719 12.130719 16.136719 12.136719 L 21.765625 17.765625 C 19.123625 20.093625 15.170781 20.426625 12.175781 18.515625 C 11.685781 18.202625 11.229406 17.834875 10.816406 17.421875 C 9.3054063 15.910875 8.4726562 13.902625 8.4726562 11.765625 C 8.4726562 9.796625 9.1796563 7.9346562 10.472656 6.4726562 z M 18.242188 7 C 17.981375 6.9992656 17.720391 7.0340156 17.462891 7.1035156 C 17.195891 7.1745156 17.036422 7.4488437 17.107422 7.7148438 C 17.179422 7.9818438 17.455703 8.1403594 17.720703 8.0683594 C 18.409703 7.8853594 19.148344 8.0838906 19.652344 8.5878906 C 20.155344 9.0918906 20.353922 9.8315312 20.169922 10.519531 C 20.097922 10.786531 20.256437 11.059859 20.523438 11.130859 C 20.566437 11.142859 20.609344 11.148437 20.652344 11.148438 C 20.873344 11.148438 21.075766 11.001344 21.134766 10.777344 C 21.411766 9.7453437 21.114375 8.6339063 20.359375 7.8789062 C 19.792375 7.3126562 19.024625 7.0022031 18.242188 7 z M 9.1582031 16.994141 C 9.4442031 17.392141 9.755375 17.776859 10.109375 18.130859 C 10.459375 18.480859 10.847047 18.790125 11.248047 19.078125 C 11.218047 19.115125 11.201969 19.159359 11.167969 19.193359 C 10.582969 19.778359 9.631875 19.778359 9.046875 19.193359 C 8.762875 18.909359 8.6054688 18.533812 8.6054688 18.132812 C 8.6054688 17.732813 8.762875 17.356266 9.046875 17.072266 C 9.078875 17.039266 9.1232031 17.023141 9.1582031 16.994141 z M 11.113281 20.414062 L 13.503906 25.998047 L 8.8457031 25.998047 L 9.6777344 20.591797 C 9.8197344 20.615797 9.9634219 20.632813 10.107422 20.632812 C 10.451422 20.632812 10.793281 20.555062 11.113281 20.414062 z M 8.2636719 26.998047 L 14.263672 26.998047 C 14.539672 26.998047 14.763672 27.222047 14.763672 27.498047 L 14.763672 27.998047 L 7.7636719 27.998047 L 7.7636719 27.498047 C 7.7636719 27.222047 7.9876719 26.998047 8.2636719 26.998047 z "></path></svg>