<svg width="88" height="88" viewBox="0 0 88 88" fill="none" xmlns="http://www.w3.org/2000/svg">
<rect width="88" height="88" rx="16" fill="#F7F3FA"/>
<g clip-path="url(#clip0_1156_8131)">
<path d="M68.9733 24.8945H17.9449C15.0672 24.8945 12.7344 27.2274 12.7344 30.1051V59.4058C12.7344 62.2835 15.0672 64.6164 17.9449 64.6164H68.9733C71.851 64.6164 74.1839 62.2835 74.1839 59.4058V30.1051C74.1839 27.2274 71.851 24.8945 68.9733 24.8945Z" fill="#60269E"/>
<path d="M25.3763 44.5732H30.8127C35.12 44.5732 38.6284 48.0817 38.6284 52.3891V53.7091C38.6284 54.8902 37.6732 55.8454 36.4921 55.8454H19.6969C18.5158 55.8454 17.5605 54.8902 17.5605 53.7091V52.3891C17.5605 48.0817 21.069 44.5732 25.3763 44.5732Z" fill="#F7F3FA"/>
<path d="M28.088 45.2854C31.3014 45.2854 33.9064 42.6803 33.9064 39.4669C33.9064 36.2535 31.3014 33.6484 28.088 33.6484C24.8745 33.6484 22.2695 36.2535 22.2695 39.4669C22.2695 42.6803 24.8745 45.2854 28.088 45.2854Z" fill="#F7F3FA" stroke="#60269E" stroke-width="1.73685" stroke-miterlimit="10"/>
<path d="M50.0767 42.2288C49.9204 42.1594 49.8335 42.0204 49.7988 41.8641C49.764 41.6904 49.7988 41.5515 49.8683 41.4125C50.9625 39.7973 52.3519 38.5467 54.0714 37.6609C55.7909 36.7751 57.6319 36.3409 59.5946 36.3409C61.5572 36.3409 63.3114 36.7578 65.0135 37.5914C66.7156 38.4251 68.1051 39.6236 69.2167 41.1867C69.3556 41.3778 69.4077 41.5688 69.3556 41.7252C69.3209 41.8815 69.234 42.0204 69.0951 42.1246C68.9562 42.2288 68.8172 42.2636 68.6435 42.2636C68.4698 42.2636 68.3309 42.1594 68.2267 41.9683C67.254 40.5788 66.0035 39.502 64.4751 38.7725C62.9467 38.0257 61.314 37.6436 59.6119 37.6262C57.8751 37.6262 56.2598 37.9909 54.7488 38.7378C53.2377 39.4846 52.0046 40.5788 51.0493 41.9857C50.9104 42.1767 50.754 42.2983 50.563 42.3157C50.3893 42.3331 50.233 42.3157 50.094 42.2288H50.0767ZM63.0162 55.7937C60.8798 55.3768 59.2125 54.4216 58.0314 52.9452C56.8504 51.4689 56.2425 49.7147 56.2425 47.6652C56.2425 46.7273 56.5725 45.911 57.2151 45.251C57.8751 44.591 58.6567 44.2436 59.5946 44.2436C60.5325 44.2436 61.3314 44.5562 61.974 45.1989C62.634 45.8415 62.964 46.6231 62.964 47.5436C62.964 48.1342 63.1725 48.6205 63.5719 49.0373C63.9714 49.4542 64.4751 49.6452 65.0656 49.6452C65.6562 49.6452 66.1251 49.4368 66.5246 49.0373C66.924 48.6205 67.1151 48.1342 67.1151 47.5436C67.1151 45.4941 66.3856 43.7746 64.9093 42.3852C63.433 40.9957 61.6614 40.2836 59.5598 40.2836C57.4583 40.2836 55.704 40.9957 54.2451 42.4373C52.7862 43.8789 52.074 45.6157 52.074 47.6826C52.074 48.3773 52.1262 49.0373 52.213 49.6626C52.3172 50.2879 52.4562 50.8784 52.6819 51.4689C52.7514 51.6773 52.7514 51.851 52.6819 51.99C52.6125 52.1289 52.5083 52.2331 52.3519 52.3026C52.1783 52.3721 52.0046 52.3721 51.8309 52.3026C51.6746 52.2505 51.5356 52.1115 51.4488 51.8684C51.2577 51.3473 51.1014 50.7394 50.9798 50.01C50.8583 49.2978 50.7888 48.4989 50.7888 47.6478C50.7888 45.2683 51.6398 43.2189 53.3593 41.4994C55.0788 39.7973 57.1456 38.9288 59.5598 38.9288C61.974 38.9288 64.0756 39.7625 65.7951 41.4299C67.5146 43.0973 68.3656 45.1294 68.3656 47.5089C68.3656 48.4294 68.0356 49.2284 67.393 49.8884C66.7504 50.5484 65.9688 50.8784 65.0309 50.8784C64.093 50.8784 63.2767 50.5657 62.6167 49.9405C61.9567 49.3152 61.6267 48.5336 61.6267 47.6305C61.6267 47.0399 61.4356 46.5362 61.0362 46.102C60.6367 45.6852 60.1504 45.4768 59.5598 45.4768C58.9693 45.4768 58.5004 45.6852 58.1009 46.102C57.7014 46.5189 57.493 47.0226 57.493 47.6305C57.493 49.4194 57.9967 50.9131 59.004 52.1463C60.0114 53.3795 61.453 54.1784 63.3635 54.5779C63.5546 54.5953 63.6762 54.6821 63.7456 54.821C63.8151 54.96 63.8325 55.1163 63.7977 55.2726C63.763 55.4289 63.6762 55.5679 63.5546 55.6547C63.433 55.7589 63.2419 55.7763 62.9988 55.7416L63.0162 55.7937ZM53.4114 36.4972C53.203 36.6014 53.0293 36.6362 52.873 36.6014C52.7167 36.5667 52.5951 36.4625 52.5083 36.3235C52.4388 36.2193 52.4214 36.063 52.4562 35.872C52.4909 35.6809 52.5951 35.542 52.7514 35.4725C53.7935 34.8646 54.9051 34.413 56.0688 34.1351C57.2325 33.8572 58.4135 33.7183 59.6119 33.7183C60.8104 33.7183 61.9567 33.8572 63.0856 34.1351C64.2146 34.413 65.3088 34.8298 66.3335 35.3856C66.5246 35.4899 66.6462 35.6114 66.6809 35.7851C66.7156 35.9588 66.6983 36.1151 66.6288 36.2541C66.5419 36.393 66.4204 36.4972 66.264 36.5667C66.1077 36.6362 65.934 36.6188 65.7604 36.5146C64.8051 36.0283 63.8151 35.6462 62.773 35.3856C61.7309 35.1251 60.6714 35.0035 59.5946 35.0035C58.5177 35.0035 57.4409 35.1251 56.3988 35.3683C55.3567 35.6114 54.3667 35.9935 53.4114 36.5146V36.4972ZM56.6419 55.29C55.5998 54.2305 54.8183 53.0668 54.3146 51.8163C53.8109 50.5657 53.5504 49.1763 53.5504 47.6652C53.5504 45.9978 54.1409 44.5562 55.3046 43.3752C56.4683 42.1941 57.9098 41.6036 59.5946 41.6036C61.2793 41.6036 62.7035 42.1767 63.9019 43.3231C65.1004 44.4694 65.6909 45.8762 65.6909 47.5263C65.6909 47.7347 65.6388 47.9257 65.5346 48.0647C65.4304 48.2036 65.274 48.2731 65.0656 48.2731C64.8398 48.2731 64.6662 48.2036 64.5619 48.0647C64.4577 47.9257 64.3883 47.752 64.3883 47.5263C64.3883 46.2236 63.9193 45.112 62.9814 44.2089C62.0435 43.3057 60.9146 42.8541 59.5946 42.8541C58.2746 42.8541 57.1283 43.3231 56.2077 44.261C55.2872 45.1989 54.8183 46.3278 54.8183 47.6478C54.8183 49.0373 55.0267 50.2531 55.4609 51.3126C55.8951 52.3547 56.6072 53.3968 57.5972 54.4389C57.7362 54.5779 57.8056 54.7342 57.823 54.8905C57.823 55.0468 57.7883 55.1858 57.7014 55.29C57.5798 55.4463 57.4062 55.5158 57.1977 55.5158C56.9893 55.5158 56.7983 55.4289 56.6419 55.2726V55.29ZM65.3088 53.5184C63.5546 53.5184 62.0609 53.0147 60.8277 51.99C59.5946 50.9652 58.9693 49.5063 58.9693 47.5784C58.9693 47.3873 59.0214 47.231 59.143 47.092C59.2472 46.9531 59.4035 46.901 59.6119 46.901C59.8204 46.901 59.9593 46.9705 60.0809 47.092C60.1851 47.231 60.2546 47.3873 60.2546 47.5784C60.2546 49.1242 60.7583 50.2879 61.7483 51.0868C62.7383 51.8684 63.9367 52.2679 65.3435 52.2679C65.5172 52.2679 65.7256 52.2505 65.9514 52.2158C66.1772 52.181 66.403 52.1637 66.594 52.1637C66.7677 52.1637 66.924 52.2158 67.0456 52.32C67.1672 52.4242 67.2193 52.5458 67.2193 52.7021C67.2193 52.8758 67.1846 53.0147 67.0977 53.1189C67.0109 53.2231 66.9067 53.2926 66.7677 53.3447C66.5246 53.4316 66.264 53.4837 66.0035 53.5184C65.743 53.5358 65.5346 53.5531 65.3609 53.5531L65.3088 53.5184Z" fill="#F7F3FA"/>
</g>
<defs>
<clipPath id="clip0_1156_8131">
<rect width="61.4495" height="39.7219" fill="white" transform="translate(12.7344 24.8945)"/>
</clipPath>
</defs>
</svg>
