<svg width="88" height="88" viewBox="0 0 88 88" fill="none" xmlns="http://www.w3.org/2000/svg">
<rect width="88" height="88" rx="16" fill="white"/>
<path d="M37.9023 31.8252H34.498V35.2294H37.9023V31.8252Z" fill="#EF3A43"/>
<path d="M54.9756 31.8252H41.324V35.2294H51.5714V37.8868L47.3162 40.3531C44.6762 41.8815 43.0435 44.6952 43.0435 47.752V50.7741L40.7683 49.4541C39.014 48.4468 37.9198 46.5536 37.9198 44.5215V38.6684H34.5156V44.8515C34.5156 47.9084 36.1483 50.722 38.7883 52.2505L43.0609 54.7168L44.8325 55.7415L46.4651 54.8036L50.7204 52.3373C53.3604 50.8089 54.993 47.9952 54.993 44.9384V35.2468V31.8426L54.9756 31.8252ZM51.5714 44.591C51.5714 46.6231 50.4946 48.4989 48.723 49.5236L46.4477 50.8436V48.0647C46.4477 46.0326 47.5246 44.1568 49.2961 43.132L51.5714 41.812V44.591Z" fill="#EF3A43"/>
<path d="M44.747 72.6404C56.2623 68.854 60.5349 62.3409 62.4802 59.0409C64.7381 55.2025 66.2839 49.8703 67.0655 46.7961C67.4476 45.3025 67.6386 43.7567 67.6386 42.2109V24.1998C67.6386 23.7309 67.2565 23.3661 66.7876 23.3488C58.4681 22.9667 54.5255 17.0093 53.5702 15.3419C53.4139 15.064 53.136 14.9077 52.8234 14.9077H44.747H36.6707C36.3581 14.9077 36.0802 15.064 35.9239 15.3419C34.986 17.0093 31.026 22.9667 22.7065 23.3488C22.2376 23.3661 21.8555 23.7309 21.8555 24.1998V42.2109C21.8555 43.7567 22.0465 45.2851 22.4286 46.7961C23.2102 49.8703 24.756 55.2025 27.0139 59.0409C28.9592 62.3409 33.2318 68.854 44.747 72.6404Z" stroke="#60269E" stroke-width="4.3421" stroke-linecap="round" stroke-linejoin="round"/>
</svg>
