<svg width="88" height="88" viewBox="0 0 88 88" fill="none" xmlns="http://www.w3.org/2000/svg">
<rect width="88" height="88" rx="16" fill="white"/>
<g clip-path="url(#clip0_1156_8190)">
<path d="M42.8027 28.3169V51.8337" stroke="#60269E" stroke-width="4.3421" stroke-linecap="round" stroke-linejoin="round"/>
<path d="M29.5488 52.5625V69.3056C29.5488 71.3203 31.1641 72.9356 33.1788 72.9356H62.1841C64.1815 72.9356 65.8141 71.3203 65.8141 69.3056V18.5377C65.8141 16.5403 64.1815 14.9077 62.1841 14.9077H33.1788C31.1641 14.9077 29.5488 16.5403 29.5488 18.5377V27.1177" stroke="#60269E" stroke-width="4.3421" stroke-linecap="round" stroke-linejoin="round"/>
<path d="M42.5918 17.2002H52.7523" stroke="#60269E" stroke-width="4.3421" stroke-linecap="round" stroke-linejoin="round"/>
<path d="M29.5488 64.894H65.8141" stroke="#60269E" stroke-width="4.3421" stroke-linecap="round" stroke-linejoin="round"/>
<path d="M30.1393 51.8332C36.6333 51.8332 41.8977 46.5688 41.8977 40.0748C41.8977 33.5808 36.6333 28.3164 30.1393 28.3164C23.6453 28.3164 18.3809 33.5808 18.3809 40.0748C18.3809 46.5688 23.6453 51.8332 30.1393 51.8332Z" stroke="#E50695" stroke-width="4.3421" stroke-miterlimit="10" stroke-linecap="round"/>
<path d="M34.1164 37.6427C34.1164 37.6427 34.1164 37.8337 34.0816 37.9206C34.0122 38.2506 33.7516 38.4937 33.3695 38.4937H31.9627C31.9627 38.4937 31.8758 38.5806 31.8585 38.6848C31.3548 40.5085 30.1216 41.5158 28.4716 41.5332H27.7943L28.0374 41.8111C29.2706 43.2353 30.4864 44.6595 31.7195 46.0837C31.9453 46.3443 32.0495 46.6569 31.9453 47.0216C31.8758 47.3516 31.6501 47.5601 31.3374 47.6122C31.0595 47.6469 30.8685 47.508 30.6948 47.3169C29.4616 45.9101 28.2458 44.5032 27.0127 43.1137C26.509 42.5406 26.0227 41.9674 25.5016 41.3943C25.2411 41.099 25.1369 40.769 25.2758 40.3522C25.3974 39.9353 25.7101 39.8137 26.0574 39.8137H28.5064C29.288 39.8137 29.8611 39.3969 30.278 38.5285H25.7622C25.658 38.5285 25.519 38.5285 25.3974 38.4416C25.2237 38.4069 25.0848 38.2853 25.0153 38.129C24.9806 38.0422 24.9458 37.9901 24.9458 37.9032C24.9458 37.9032 24.9285 37.9032 24.9458 37.8685C24.9111 37.8164 24.9111 37.7295 24.9111 37.6774V37.5037C24.9111 37.5037 24.9111 37.469 24.9458 37.4516C24.9458 37.4169 24.9458 37.3648 24.9632 37.3474C24.9632 37.2953 24.9806 37.2432 25.0153 37.1911C25.0501 37.139 25.0848 37.0522 25.1369 37.0174C25.1716 36.9653 25.2411 36.9306 25.3106 36.8958C25.3106 36.8958 25.4148 36.8611 25.5016 36.8437C25.5537 36.8437 25.6058 36.8437 25.7101 36.809H30.2258V36.7743C30.0348 36.0622 29.3227 35.5064 28.5758 35.489H25.6753C25.1369 35.489 24.7895 34.9506 24.9458 34.3601C25.0327 33.978 25.328 33.7695 25.7622 33.7695H33.4216C33.8037 33.7695 34.099 34.0301 34.1511 34.4469C34.2032 34.8464 34.0469 35.2458 33.7169 35.3848C33.6127 35.4195 33.4564 35.4369 33.3348 35.4716H31.4764C31.598 35.8885 31.7369 36.288 31.8932 36.6527C31.9106 36.7048 32.0495 36.7569 32.119 36.7569H33.3869C33.8211 36.7569 34.1511 37.139 34.1511 37.608V37.6948L34.1164 37.6427Z" fill="#E50695"/>
</g>
<defs>
<clipPath id="clip0_1156_8190">
<rect width="51.7753" height="62.37" fill="white" transform="translate(16.2109 12.7368)"/>
</clipPath>
</defs>
</svg>
