<?xml version="1.0" encoding="UTF-8"?>
<!DOCTYPE svg PUBLIC "-//W3C//DTD SVG 1.1//EN" "http://www.w3.org/Graphics/SVG/1.1/DTD/svg11.dtd">
<!-- Creator: CorelDRAW 2018 (64-Bit) -->
<svg xmlns="http://www.w3.org/2000/svg" xml:space="preserve" width="7.75216in" height="7.7525in" version="1.1" style="shape-rendering:geometricPrecision; text-rendering:geometricPrecision; image-rendering:optimizeQuality; fill-rule:evenodd; clip-rule:evenodd"
viewBox="0 0 7.75217 7.7525"
 xmlns:xlink="http://www.w3.org/1999/xlink">
 <defs>
  <style type="text/css">
   <![CDATA[
    .fil11 {fill:black}
    .fil5 {fill:#4D964D}
    .fil4 {fill:#5EAA5E}
    .fil3 {fill:#91CE91}
    .fil10 {fill:silver}
    .fil8 {fill:#C17B48}
    .fil7 {fill:#D38D54}
    .fil9 {fill:#DADADA}
    .fil6 {fill:#DD9A5E}
    .fil2 {fill:#E59C1C}
    .fil1 {fill:#F9B938}
    .fil0 {fill:#FCD249}
   ]]>
  </style>
 </defs>
 <g id="Layer_x0020_1">
  <metadata id="CorelCorpID_0Corel-Layer"/>
  <circle class="fil0" cx="6.1491" cy="1.34217" r="1.22875"/>
  <path class="fil1" d="M5.44755 1.74722c-0.3036,-0.52588 -0.17407,-1.18263 0.2775,-1.55817 -0.06481,0.02391 -0.12854,0.05328 -0.19039,0.08899 -0.58774,0.33932 -0.78909,1.09083 -0.44978,1.67856 0.33932,0.58772 1.09083,0.78908 1.67855,0.44978 0.06185,-0.0357 0.11915,-0.07622 0.17226,-0.12039 -0.551,0.2033 -1.18454,-0.0129 -1.48814,-0.53877z"/>
  <circle class="fil1" cx="6.1491" cy="1.34217" r="0.81009"/>
  <path class="fil2" d="M5.77536 1.55795c-0.19107,-0.33095 -0.12189,-0.74058 0.1438,-0.99242 -0.05989,0.01777 -0.11868,0.04258 -0.17514,0.07518 -0.38743,0.22367 -0.52018,0.71909 -0.29649,1.10651 0.22367,0.38743 0.71909,0.52017 1.10652,0.29649 0.05648,-0.0326 0.10735,-0.07112 0.15269,-0.11409 -0.35095,0.10418 -0.74028,-0.0407 -0.93137,-0.37167z"/>
  <circle class="fil0" cx="4.9709" cy="1.34217" r="1.22875"/>
  <path class="fil1" d="M4.26935 1.74722c-0.3036,-0.52588 -0.17407,-1.18263 0.2775,-1.55817 -0.06481,0.02391 -0.12854,0.05328 -0.19039,0.08899 -0.58772,0.33932 -0.78909,1.09083 -0.44978,1.67856 0.3393,0.58773 1.09083,0.78908 1.67856,0.44978 0.06185,-0.0357 0.11915,-0.07622 0.17226,-0.12039 -0.55102,0.2033 -1.18454,-0.0129 -1.48815,-0.53877z"/>
  <circle class="fil1" cx="4.9709" cy="1.34217" r="0.81009"/>
  <path class="fil2" d="M4.59718 1.55795c-0.19107,-0.33095 -0.12189,-0.74058 0.1438,-0.99242 -0.05989,0.01777 -0.11868,0.04258 -0.17514,0.07518 -0.38743,0.22367 -0.52017,0.71909 -0.29649,1.10651 0.22367,0.38743 0.71909,0.52017 1.10651,0.29649 0.05646,-0.0326 0.10735,-0.07112 0.15269,-0.11409 -0.35096,0.10418 -0.74028,-0.0407 -0.93137,-0.37167z"/>
  <path class="fil3" d="M5.07373 2.17276l-1.9795 -1.99465c-0.08562,-0.08562 -0.22573,-0.08562 -0.31135,0l-1.9795 1.99465 4.27036 0z"/>
  <path class="fil4" d="M3.09423 0.17811c-0.08562,-0.08562 -0.22573,-0.08562 -0.31135,0l-1.97952 1.99465 0.59054 0 1.83993 -1.854 -0.13959 -0.14065z"/>
  <path class="fil4" d="M2.78287 0.77028l-1.38735 1.40249 3.08603 0 -1.38733 -1.40249c-0.08562,-0.08562 -0.22573,-0.08562 -0.31135,0z"/>
  <path class="fil5" d="M3.09423 0.77028c-0.08562,-0.08562 -0.22573,-0.08562 -0.31135,0l-1.38735 1.40249 0.39368 0 1.34617 -1.36087 -0.04115 -0.04161z"/>
  <g>
   <path class="fil6" d="M7.63859 5.90068l0 1.05228c0,0.37824 -0.3077,0.68597 -0.68597,0.68597l-6.15308 -0c-0.37824,0 -0.68598,-0.30772 -0.68598,-0.68597l0 -4.10938c0,-0.37824 0.30771,-0.68596 0.68598,-0.68596l6.15308 0c0.37824,0 0.68597,0.30772 0.68597,0.68596l0 1.04827 0 2.00883zm0 0l0 0 0 0z"/>
  </g>
  <path class="fil7" d="M0.53754 6.95296l0 -4.10938c0,-0.37824 0.30771,-0.68596 0.68598,-0.68596l-0.42396 0c-0.37824,0 -0.68597,0.30772 -0.68597,0.68596l0 4.10938c0,0.37824 0.30771,0.68597 0.68597,0.68597l0.42396 -0c-0.37827,0 -0.68598,-0.30774 -0.68598,-0.68597z"/>
  <path class="fil7" d="M7.63859 3.92918l-1.74999 0c-0.533,0 -0.96908,0.43609 -0.96908,0.96908l0 0c0,0.533 0.43609,0.96908 0.96908,0.96908l1.74999 -0 0 -1.93815z"/>
  <path class="fil8" d="M4.94245 4.69011c-0.01484,0.06713 -0.02291,0.13673 -0.02291,0.20817l0 0c0,0.533 0.43609,0.96908 0.96908,0.96908l1.74997 -0 0 -0.41633 -1.74997 0c-0.46156,0 -0.85023,-0.32712 -0.94617,-0.76091z"/>
  <circle class="fil9" cx="5.9153" cy="4.89368" r="0.54511"/>
  <path class="fil10" d="M6.24631 5.14772c-0.2908,-0.07792 -0.46338,-0.37681 -0.38545,-0.66762 0.01265,-0.04715 0.03116,-0.09114 0.05443,-0.1315 -0.2408,-0.00014 -0.46124,0.16041 -0.52652,0.40405 -0.07792,0.29079 0.09465,0.58971 0.38545,0.66762 0.24364,0.06528 0.4929,-0.04533 0.61319,-0.25394 -0.04659,-0.00003 -0.09394,-0.00596 -0.14111,-0.01861z"/>
  <path class="fil11" d="M5.44956 4.42797c-0.4153,0.41533 -0.11712,1.12411 0.46577,1.12411 0.58243,0 0.88154,-0.70832 0.46577,-1.12411l-0.00001 0c-0.25686,-0.2568 -0.67472,-0.25677 -0.93153,0zm0.77092 0.7709c-0.1683,0.16825 -0.44209,0.16824 -0.61031,0 -0.27205,-0.27205 -0.07675,-0.73648 0.30513,-0.73648 0.38179,0.00001 0.57736,0.46428 0.30518,0.73648z"/>
  <path class="fil11" d="M4.07349 7.11079c-0.06273,0 -0.11356,0.05083 -0.11356,0.11356 0,0.06273 0.05083,0.11356 0.11356,0.11356l0.01524 -0c0.06273,0 0.11356,-0.05083 0.11356,-0.11356 0,-0.06273 -0.05083,-0.11356 -0.11356,-0.11356l-0.01524 0z"/>
  <path class="fil11" d="M2.00756 7.22435c0,-0.15143 -0.24235,-0.15192 -0.24235,0 0,0.06273 0.05083,0.11356 0.11356,0.11356l0.01523 -0c0.06273,0 0.11356,-0.05085 0.11356,-0.11356z"/>
  <path class="fil11" d="M4.50571 2.57221c0,0.06273 0.05083,0.11356 0.11356,0.11356l0.01524 -0c0.06273,0 0.11356,-0.05083 0.11356,-0.11356 0,-0.15144 -0.24237,-0.15191 -0.24237,0z"/>
  <path class="fil11" d="M4.62218 7.11079c-0.06273,0 -0.11356,0.05083 -0.11356,0.11356 0,0.06273 0.05083,0.11356 0.11356,0.11356l0.01524 -0c0.06273,0 0.11356,-0.05083 0.11356,-0.11356 0,-0.06273 -0.05083,-0.11356 -0.11356,-0.11356l-0.01524 0z"/>
  <path class="fil11" d="M5.73478 7.33791c0.06274,0 0.11356,-0.05083 0.11356,-0.11356 0,-0.06273 -0.05083,-0.11356 -0.11356,-0.11356l-0.01524 0c-0.06273,0 -0.11356,0.05083 -0.11356,0.11356 0,0.06273 0.05083,0.11356 0.11356,0.11356l0.01524 -0z"/>
  <path class="fil11" d="M1.87587 2.68577l0.01523 0c0.06273,0 0.11356,-0.05083 0.11356,-0.11356 0,-0.06273 -0.05083,-0.11356 -0.11356,-0.11356l-0.01523 0c-0.06273,0 -0.11356,0.05083 -0.11356,0.11356 -0.00001,0.06271 0.05082,0.11356 0.11356,0.11356z"/>
  <path class="fil11" d="M5.1861 7.33791c0.06273,0 0.11356,-0.05083 0.11356,-0.11356 0,-0.06273 -0.05083,-0.11356 -0.11356,-0.11356l-0.01525 0c-0.06273,0 -0.11356,0.05083 -0.11356,0.11356 0,0.06273 0.05083,0.11356 0.11356,0.11356l0.01525 -0z"/>
  <path class="fil11" d="M4.08583 2.45865l-0.01524 0c-0.06273,0 -0.11356,0.05083 -0.11356,0.11356 0,0.15143 0.24237,0.15191 0.24237,0 -0,-0.06273 -0.05083,-0.11356 -0.11356,-0.11356z"/>
  <path class="fil11" d="M2.42745 7.11079c-0.06273,0 -0.11356,0.05083 -0.11356,0.11356 0,0.06273 0.05083,0.11356 0.11356,0.11356l0.01523 -0c0.06273,0 0.11356,-0.05083 0.11356,-0.11356 0,-0.06273 -0.05083,-0.11356 -0.11356,-0.11356l-0.01523 0z"/>
  <path class="fil11" d="M2.43978 2.45865l-0.01523 0c-0.06273,0 -0.11356,0.05083 -0.11356,0.11356 0,0.06273 0.05083,0.11356 0.11356,0.11356l0.01523 -0c0.06273,0 0.11356,-0.05083 0.11356,-0.11356 -0,-0.06273 -0.05083,-0.11356 -0.11356,-0.11356z"/>
  <path class="fil11" d="M2.98847 2.45865l-0.01523 0c-0.06273,0 -0.11356,0.05083 -0.11356,0.11356 0,0.15143 0.24235,0.15191 0.24235,0 0,-0.06273 -0.05083,-0.11356 -0.11356,-0.11356z"/>
  <path class="fil11" d="M6.28348 7.33791c0.06272,0 0.11356,-0.05083 0.11356,-0.11356 0,-0.15143 -0.24237,-0.15192 -0.24237,0 0,0.06273 0.05083,0.11356 0.11356,0.11356l0.01524 0z"/>
  <path class="fil11" d="M3.52481 7.11079c-0.06273,0 -0.11356,0.05083 -0.11356,0.11356 0,0.06273 0.05083,0.11356 0.11356,0.11356l0.01523 -0c0.06273,0 0.11356,-0.05083 0.11356,-0.11356 0,-0.06273 -0.05083,-0.11356 -0.11356,-0.11356l-0.01523 0z"/>
  <path class="fil11" d="M3.53715 2.45865l-0.01524 0c-0.06273,0 -0.11356,0.05083 -0.11356,0.11356 0,0.06273 0.05083,0.11356 0.11356,0.11356l0.01524 -0c0.06274,0 0.11356,-0.05083 0.11356,-0.11356 0.00002,-0.06273 -0.05083,-0.11356 -0.11356,-0.11356z"/>
  <path class="fil11" d="M2.97614 7.11079c-0.06273,0 -0.11356,0.05083 -0.11356,0.11356 0,0.06273 0.05083,0.11356 0.11356,0.11356l0.01523 -0c0.06274,0 0.11356,-0.05083 0.11356,-0.11356 0,-0.06273 -0.05083,-0.11356 -0.11356,-0.11356l-0.01523 0z"/>
  <path class="fil11" d="M0.52814 6.15024c-0.06272,0 -0.11356,0.05083 -0.11356,0.11356l0 0.01525c0,0.06273 0.05085,0.11356 0.11356,0.11356 0.15143,-0 0.15192,-0.24237 0,-0.24237z"/>
  <path class="fil11" d="M0.52814 6.69894c-0.06272,0 -0.11356,0.05083 -0.11356,0.11356l0 0.01524c0,0.06273 0.05085,0.11356 0.11356,0.11356 0.15143,-0 0.15192,-0.24237 0,-0.24237z"/>
  <path class="fil11" d="M0.6417 5.71511c0,-0.06273 -0.05083,-0.11356 -0.11356,-0.11356 -0.06272,0 -0.11356,0.05083 -0.11356,0.11356l0 0.01525c0,0.06272 0.05085,0.11356 0.11356,0.11356 0.06273,0 0.11356,-0.05085 0.11356,-0.11356l0 -0.01525z"/>
  <path class="fil11" d="M0.78748 2.68623c0.00285,-0.00023 0.00569,-0.00036 0.00856,-0.00043 0.14949,-0.00303 0.15488,-0.24041 -0.02648,-0.22599 -0.06254,0.00495 -0.1092,0.05964 -0.10425,0.12216 0.00489,0.06178 0.05883,0.10917 0.12218,0.10425z"/>
  <path class="fil11" d="M0.6417 5.16644c0,-0.06273 -0.05083,-0.11356 -0.11356,-0.11356 -0.06272,0 -0.11356,0.05083 -0.11356,0.11356l0 0.01525c0,0.06273 0.05085,0.11356 0.11356,0.11356 0.06273,0 0.11356,-0.05083 0.11356,-0.11356l0 -0.01525z"/>
  <path class="fil11" d="M0.91018 7.22566c0.00169,-0.14716 -0.23215,-0.15661 -0.24209,-0.00956 -0.01031,0.15311 0.2403,0.16708 0.24209,0.00956z"/>
  <path class="fil11" d="M0.6417 2.9717c0,-0.06273 -0.05083,-0.11356 -0.11356,-0.11356 -0.06272,0 -0.11356,0.05083 -0.11356,0.11356l0 0.01523c0,0.06273 0.05085,0.11356 0.11356,0.11356 0.06273,0 0.11356,-0.05083 0.11356,-0.11356l0 -0.01523z"/>
  <path class="fil11" d="M1.34242 2.68577c0.06273,0 0.11356,-0.05083 0.11356,-0.11356 0,-0.15143 -0.24237,-0.15192 -0.24237,0 0,0.06273 0.05083,0.11356 0.11356,0.11356l0.01524 0z"/>
  <path class="fil11" d="M0.6417 3.5204c0,-0.06273 -0.05083,-0.11356 -0.11356,-0.11356 -0.06272,0 -0.11356,0.05083 -0.11356,0.11356l0 0.01523c0,0.06273 0.05085,0.11356 0.11356,0.11356 0.06273,0 0.11356,-0.05083 0.11356,-0.11356l0 -0.01523z"/>
  <path class="fil11" d="M0.6417 4.61774c0,-0.06273 -0.05083,-0.11356 -0.11356,-0.11356 -0.06272,0 -0.11356,0.05083 -0.11356,0.11356l0 0.01525c0,0.06273 0.05085,0.11356 0.11356,0.11356 0.06273,0 0.11356,-0.05083 0.11356,-0.11356l0 -0.01525z"/>
  <path class="fil11" d="M0.6417 4.06907c0,-0.06273 -0.05083,-0.11356 -0.11356,-0.11356 -0.06272,0 -0.11356,0.05083 -0.11356,0.11356l0 0.01523c0,0.06273 0.05085,0.11356 0.11356,0.11356 0.06273,0 0.11356,-0.05083 0.11356,-0.11356l0 -0.01523z"/>
  <path class="fil11" d="M7.1102 2.83428c0.00017,0.00285 0.00026,0.00569 0.00027,0.00857 0.00018,0.06261 0.05098,0.11325 0.11355,0.11325 0.00012,0 0.00024,0 0.00033,0 0.06272,-0.00018 0.11341,-0.05118 0.11323,-0.11388 -0.00035,-0.17969 -0.23672,-0.15947 -0.22738,-0.00793z"/>
  <path class="fil11" d="M1.33008 7.33791l0.01524 0c0.06273,0 0.11356,-0.05083 0.11356,-0.11356 0,-0.15143 -0.24237,-0.15192 -0.24237,0 0,0.06272 0.05083,0.11356 0.11356,0.11356z"/>
  <path class="fil11" d="M5.73189 2.68577c0.06273,0 0.11356,-0.05083 0.11356,-0.11356 0,-0.15143 -0.24237,-0.15192 -0.24237,0 0,0.06273 0.05083,0.11356 0.11356,0.11356l0.01524 0z"/>
  <path class="fil11" d="M5.1832 2.68577c0.06273,0 0.11356,-0.05083 0.11356,-0.11356 0,-0.06273 -0.05083,-0.11356 -0.11356,-0.11356l-0.01524 0c-0.06273,0 -0.11356,0.05083 -0.11356,0.11356 0,0.06273 0.05083,0.11356 0.11356,0.11356l0.01524 -0z"/>
  <path class="fil11" d="M7.22403 6.53123c0.06273,0 0.11356,-0.05083 0.11356,-0.11356l0 -0.01523c0,-0.06273 -0.05083,-0.11356 -0.11356,-0.11356 -0.06273,0 -0.11356,0.05083 -0.11356,0.11356l0 0.01523c0,0.06272 0.05083,0.11356 0.11356,0.11356z"/>
  <path class="fil11" d="M7.11029 6.96066c-0.00759,0.1515 0.22731,0.16851 0.22731,-0.00771l0 -0.00183c0,-0.06273 -0.05083,-0.11356 -0.11356,-0.11356 -0.06273,0 -0.11356,0.05083 -0.11356,0.11356 -0.00002,0.00153 0.00004,0.00465 -0.00018,0.00954z"/>
  <path class="fil11" d="M6.28057 2.68577c0.06273,0 0.11356,-0.05083 0.11356,-0.11356 0,-0.15143 -0.24237,-0.15192 -0.24237,0 0,0.06273 0.05083,0.11356 0.11356,0.11356l0.01524 0z"/>
  <path class="fil11" d="M6.82926 2.68577c0.06273,0 0.11356,-0.05083 0.11356,-0.11356 0,-0.06273 -0.05083,-0.11356 -0.11356,-0.11356l-0.01524 0c-0.06274,0 -0.11356,0.05083 -0.11356,0.11356 0,0.06273 0.05083,0.11356 0.11356,0.11356l0.01524 -0z"/>
  <path class="fil11" d="M7.22403 3.26242c-0.06273,0 -0.11356,0.05083 -0.11356,0.11356l0 0.01524c0,0.06273 0.05083,0.11356 0.11356,0.11356 0.06273,0 0.11356,-0.05083 0.11356,-0.11356l0 -0.01524c-0,-0.06273 -0.05083,-0.11356 -0.11356,-0.11356z"/>
  <path class="fil11" d="M6.83215 7.33791c0.06273,0 0.11356,-0.05083 0.11356,-0.11356 0,-0.06273 -0.05083,-0.11356 -0.11356,-0.11356l-0.01524 0c-0.06273,0 -0.11356,0.05083 -0.11356,0.11356 0,0.06273 0.05083,0.11356 0.11356,0.11356l0.01524 -0z"/>
  <path class="fil11" d="M7.25539 2.10376c0.15305,-0.22255 0.236,-0.48671 0.236,-0.75998 0,-0.991 -1.04322,-1.64191 -1.93337,-1.20578 -0.64617,-0.31761 -1.43145,-0.06581 -1.77294,0.57038l-0.61055 -0.61054c-0.13007,-0.13009 -0.34185,-0.13009 -0.47198,-0.00001l-1.94754 1.94754c-0.4202,0.0232 -0.755,0.37233 -0.755,0.79824l0 4.10938c0,0.44086 0.35868,0.79953 0.79954,0.79953l0.74232 0c0.06273,0 0.11356,-0.05083 0.11356,-0.11356 0,-0.06273 -0.05083,-0.11356 -0.11356,-0.11356l-0.74231 0c-0.31563,0 -0.57241,-0.25677 -0.57241,-0.57241l-0 -4.1094c0,-0.31563 0.25677,-0.57241 0.57241,-0.57241 6.54334,-0.00324 6.24599,0.00763 6.24448,0.00739 0.27232,0.04389 0.48102,0.2805 0.48102,0.56502l0 0.97203 -0.26949 -0c-0.07307,-0.02109 -0.14507,0.03389 -0.14507,0.10903l0 0.00757c0,0.072 0.06683,0.12736 0.13933,0.11052l0.27523 0 0 1.71103 -0.26191 -0c-0.02559,-0.0094 -0.05256,-0.00942 -0.07819,0l-1.29632 0c-0.47174,0 -0.85552,-0.38378 -0.85552,-0.85552 0,-0.47174 0.38378,-0.85551 0.85552,-0.85551l0.80822 0c0.06273,0 0.11356,-0.05085 0.11356,-0.11356 0,-0.06273 -0.05083,-0.11356 -0.11356,-0.11356l-0.80822 0c-0.59697,0 -1.08264,0.48568 -1.08264,1.08265 0,0.59697 0.48568,1.08262 1.08264,1.08262 0.192,0 1.35871,0 1.63641,0l0 0.97204c0,0.31563 -0.25677,0.57241 -0.57241,0.57241l-4.88079 0c-0.06273,0 -0.11356,0.05083 -0.11356,0.11356 0,0.06273 0.05083,0.11356 0.11356,0.11356l4.88081 0c0.44085,0 0.79953,-0.35868 0.79953,-0.79954l0 -1.0856c0,-0.08585 0,-2.94628 0,-3.02376 -0.00001,-0.33371 -0.20563,-0.62022 -0.49678,-0.73981zm-1.14122 -0.06128c0.25877,-0.42408 0.26426,-0.96388 -0.00004,-1.39745 0.39839,-0.01998 0.73413,0.2993 0.73413,0.69874 0.00001,0.39889 -0.33515,0.71871 -0.73408,0.69871zm-1.14643 -1.8143c0.92765,0 1.46284,1.07972 0.86793,1.81587l-0.2612 0c0.64617,-0.56074 0.24802,-1.62699 -0.60672,-1.62699 -0.39447,0 -0.73739,0.24873 -0.86909,0.60487l-0.14437 -0.14437c0.18061,-0.39123 0.57906,-0.64938 1.01347,-0.64938zm-0.68567 0.97716c0.06473,-0.32345 0.35054,-0.56118 0.68567,-0.56118 0.38575,0 0.69957,0.31384 0.69957,0.69959 0,0.3351 -0.2377,0.62093 -0.56116,0.68565l-0.82408 -0.82406zm-2.61238 0.83871l1.19346 -1.19347c0.04158,-0.04158 0.1092,-0.04155 0.15075,0l0.39698 0.39698c0.04437,0.04433 0.11626,0.04433 0.16061,0 0.04435,-0.04437 0.04435,-0.11626 0,-0.1606l-0.39698 -0.39698c-0.13011,-0.13011 -0.34182,-0.13011 -0.47198,0l-1.3541 1.3541 -0.2709 0 1.78564 -1.78563c0.04129,-0.04132 0.10943,-0.04133 0.15074,0 0.17175,0.17175 1.62728,1.62728 1.78563,1.78563l-0.27093 0 -0.58176 -0.58176c-0.04437,-0.04433 -0.11626,-0.04433 -0.16061,0 -0.04435,0.04437 -0.04435,0.11626 0,0.16061l0.42113 0.42113 -2.5377 -0 0 0zm5.0849 0c0.19626,-0.17004 0.32079,-0.42081 0.32079,-0.70028 0,-0.58511 -0.53978,-1.02824 -1.11748,-0.90674 -0.04989,-0.05451 -0.10443,-0.10517 -0.16335,-0.15124 0.72327,-0.24146 1.46972,0.29847 1.46972,1.05797 0,0.257 -0.08811,0.50435 -0.24926,0.70275 -0.05509,-0.00433 -0.09719,-0.00165 -0.26042,-0.00247z"/>
 </g>
</svg>
