<svg width="88" height="88" viewBox="0 0 88 88" fill="none" xmlns="http://www.w3.org/2000/svg">
<rect width="88" height="88" rx="16" fill="#fff"/>
<g clip-path="url(#clip0_1156_8214)">
<path d="M24.0267 61.8027H29.2373C33.5446 61.8027 37.053 65.3112 37.053 69.6186V72.9533H16.2109V69.6186C16.2109 65.2938 19.7194 61.8027 24.0267 61.8027Z" fill="#60269E"/>
<path d="M26.6299 63.7818C23.382 63.7818 20.7246 61.1418 20.7246 57.8765C20.7246 54.6112 23.3646 51.9712 26.6299 51.9712C29.8951 51.9712 32.5351 54.6112 32.5351 57.8765C32.5351 61.1418 29.8951 63.7818 26.6299 63.7818Z" fill="#60269E"/>
<path d="M26.6304 52.7357C29.4615 52.7357 31.7715 55.0284 31.7715 57.8768C31.7715 60.7253 29.4788 63.0179 26.6304 63.0179C23.782 63.0179 21.4894 60.7253 21.4894 57.8768C21.4894 55.0284 23.782 52.7357 26.6304 52.7357ZM26.6304 51.1899C22.9483 51.1899 19.9609 54.1773 19.9609 57.8595C19.9609 61.5416 22.9483 64.529 26.6304 64.529C30.3125 64.529 33.2999 61.5416 33.2999 57.8595C33.2999 54.1773 30.3125 51.1899 26.6304 51.1899Z" fill="#F7F3FA"/>
<path d="M58.3627 61.8022H63.5732C67.8806 61.8022 71.389 65.3107 71.389 69.6181V72.9528H50.5469V69.6181C50.5469 65.3107 54.0553 61.8022 58.3627 61.8022Z" fill="#60269E"/>
<path d="M60.9658 63.7818C57.7179 63.7818 55.0605 61.1418 55.0605 57.8765C55.0605 54.6112 57.7005 51.9712 60.9658 51.9712C64.2311 51.9712 66.8711 54.6112 66.8711 57.8765C66.8711 61.1418 64.2311 63.7818 60.9658 63.7818Z" fill="#60269E"/>
<path d="M60.9663 52.7357C63.7974 52.7357 66.1074 55.0284 66.1074 57.8768C66.1074 60.7253 63.8148 63.0179 60.9663 63.0179C58.1179 63.0179 55.8253 60.7253 55.8253 57.8768C55.8253 55.0284 58.1179 52.7357 60.9663 52.7357ZM60.9663 51.1899C57.2842 51.1899 54.2969 54.1773 54.2969 57.8595C54.2969 61.5416 57.2842 64.529 60.9663 64.529C64.6485 64.529 67.6358 61.5416 67.6358 57.8595C67.6358 54.1773 64.6485 51.1899 60.9663 51.1899Z" fill="#F7F3FA"/>
<path d="M59.1977 57.3388L43.7919 49.1235V34.3081V49.1235L28.334 57.8772" stroke="#60269E" stroke-width="1.73685" stroke-miterlimit="10"/>
<path d="M43.7904 51.2771C44.9798 51.2771 45.9441 50.3129 45.9441 49.1234C45.9441 47.934 44.9798 46.9697 43.7904 46.9697C42.601 46.9697 41.6367 47.934 41.6367 49.1234C41.6367 50.3129 42.601 51.2771 43.7904 51.2771Z" fill="#60269E"/>
<path d="M43.7918 42.8191C51.6191 42.8191 57.9644 36.4737 57.9644 28.6464C57.9644 20.819 51.6191 14.4736 43.7918 14.4736C35.9644 14.4736 29.6191 20.819 29.6191 28.6464C29.6191 36.4737 35.9644 42.8191 43.7918 42.8191Z" fill="#60269E"/>
<path d="M49.7489 26.0409C49.7489 26.1451 49.7489 26.2493 49.6968 26.3535C49.5926 26.7356 49.2626 26.9788 48.7763 26.9961H47.1089C47.1089 26.9961 47.0047 26.9961 46.97 26.9961C46.8831 26.9961 46.8484 27.083 46.8137 27.2046C46.1537 29.2193 44.5731 30.3483 42.4716 30.3656H41.6031L41.9158 30.6783C43.4963 32.2588 45.0768 33.8567 46.6574 35.4372C46.9526 35.7325 47.0916 36.0625 46.9526 36.462C46.8484 36.8267 46.5705 37.0525 46.171 37.122C45.8237 37.1741 45.5631 37.0178 45.32 36.792C43.7395 35.2288 42.1589 33.683 40.5784 32.1372C39.9358 31.4946 39.3105 30.8693 38.6505 30.2441C38.3205 29.9141 38.1642 29.5319 38.3552 29.0804C38.5289 28.6288 38.911 28.4898 39.3626 28.4898C40.4221 28.4898 41.4816 28.4898 42.541 28.4898C43.5484 28.4898 44.2952 28.0209 44.8337 27.0482H38.9979C38.8416 27.0482 38.6679 27.0482 38.5116 26.9614C38.2858 26.9093 38.1121 26.7877 38.0079 26.614C37.9558 26.5272 37.9037 26.4577 37.9037 26.3709C37.9037 26.3709 37.8689 26.3709 37.9037 26.3361C37.8689 26.2667 37.8516 26.1972 37.8516 26.1103V26.0756C37.8516 26.0235 37.8516 25.9714 37.8516 25.9367C37.8516 25.9367 37.8516 25.8846 37.8863 25.8672C37.8863 25.8324 37.8863 25.7803 37.921 25.763C37.921 25.6935 37.9558 25.6588 38.0079 25.5893C38.06 25.5198 38.1121 25.4503 38.1816 25.3982C38.251 25.3288 38.3205 25.294 38.4074 25.2767C38.4074 25.2767 38.5463 25.2245 38.6505 25.2072C38.7374 25.2072 38.8068 25.2072 38.911 25.1724H44.7468C44.7468 25.1724 44.7468 25.1724 44.7468 25.1377C44.5037 24.3561 43.5658 23.7309 42.6279 23.7135H38.8937C38.1989 23.7135 37.7474 23.123 37.9384 22.4803C38.06 22.0635 38.4421 21.8203 38.9805 21.8203H48.8631C49.3842 21.8203 49.7316 22.1156 49.8184 22.5845C49.9052 23.0187 49.6795 23.453 49.2626 23.6093C49.1063 23.6614 48.9326 23.6787 48.7416 23.6961H46.3447C46.5184 24.1651 46.6747 24.5993 46.8831 25.0161C46.9179 25.0856 47.0742 25.1203 47.1784 25.1203C47.3695 25.1203 48.0121 25.1203 48.8284 25.1203C49.3842 25.1203 49.8184 25.5372 49.8184 26.0582L49.7489 26.0409Z" fill="white"/>
</g>
<defs>
<clipPath id="clip0_1156_8214">
<rect width="55.1795" height="58.4625" fill="white" transform="translate(16.207 14.4736)"/>
</clipPath>
</defs>
</svg>
